<?xml version="1.0" encoding="UTF-8"?>
<svg xmlns="http://www.w3.org/2000/svg" xmlns:xlink="http://www.w3.org/1999/xlink" width="288px" height="177px" viewBox="0 0 287 177" version="1.1">
<g id="surface1">
<path style=" stroke:none;fill-rule:nonzero;fill:rgb(23.529412%,22.745098%,43.137255%);fill-opacity:1;" d="M 9.679688 85.152344 C 9.199219 85.566406 8.546875 85.925781 8.503906 86.59375 C 8.789062 87.015625 9.144531 87.394531 9.472656 87.789062 C 9.566406 87.957031 9.660156 88.132812 9.753906 88.304688 L 9.828125 88.25 C 10.046875 88.835938 10.277344 89.417969 10.519531 89.996094 L 11.628906 86.574219 Z M 9.679688 85.152344 "/>
<path style=" stroke:none;fill-rule:nonzero;fill:rgb(23.529412%,22.745098%,43.137255%);fill-opacity:1;" d="M 133.671875 81.839844 L 133.671875 17.835938 C 129.496094 17.800781 125.320312 17.78125 121.148438 17.707031 C 120.425781 17.714844 119.699219 17.601562 118.988281 17.714844 C 116.757812 17.507812 114.507812 17.539062 112.273438 17.371094 L 112.738281 18.8125 L 116.609375 18.8125 L 113.476562 21.085938 L 114.679688 24.773438 L 111.546875 22.492188 L 108.417969 24.773438 L 109.613281 21.089844 L 106.480469 18.8125 L 110.347656 18.8125 L 110.855469 17.242188 C 110.550781 17.226562 110.246094 17.222656 109.941406 17.246094 C 104.105469 16.933594 98.277344 16.441406 92.457031 15.890625 C 92.035156 15.847656 91.609375 15.804688 91.1875 15.765625 C 90.769531 15.722656 90.351562 15.683594 89.933594 15.640625 L 90.964844 18.8125 L 94.832031 18.8125 L 91.703125 21.085938 L 92.902344 24.773438 L 89.769531 22.492188 L 86.644531 24.773438 L 87.835938 21.089844 L 84.703125 18.8125 L 88.574219 18.8125 L 89.613281 15.609375 C 88.167969 15.460938 86.726562 15.304688 85.289062 15.144531 C 84.113281 15.007812 82.941406 14.855469 81.773438 14.683594 L 82.011719 15.417969 L 80.804688 14.539062 C 79.757812 14.378906 78.710938 14.207031 77.664062 14.027344 L 75.75 15.417969 L 76.285156 13.78125 C 71.042969 12.828125 65.839844 11.660156 60.625 10.582031 L 59.042969 11.730469 L 60.234375 15.417969 L 57.109375 13.140625 L 53.976562 15.417969 L 55.175781 11.730469 L 52.046875 9.453125 L 55.011719 9.453125 C 54.546875 9.285156 54.039062 9.226562 53.558594 9.117188 C 47.320312 7.839844 41.089844 6.519531 34.871094 5.171875 C 34.734375 5.175781 34.457031 5.1875 34.316406 5.191406 L 34.367188 5.054688 C 32.472656 4.625 30.570312 4.203125 28.6875 3.722656 C 27.5 3.421875 26.40625 2.859375 25.300781 2.355469 C 25.28125 3.054688 25.390625 3.789062 25.152344 4.460938 C 24.765625 4.691406 24.332031 4.820312 23.914062 4.988281 C 23.933594 5.65625 24.125 6.308594 24.132812 6.972656 C 23.648438 7.902344 22.316406 8.0625 21.421875 7.707031 C 19.921875 6.945312 18.761719 5.6875 17.566406 4.53125 C 17.191406 4.945312 17.28125 5.546875 17.058594 6.035156 C 16.855469 6.511719 16.648438 6.988281 16.488281 7.480469 C 16.714844 7.910156 17.035156 8.273438 17.429688 8.558594 C 17.480469 8.855469 17.535156 9.152344 17.585938 9.453125 L 18.625 9.453125 L 17.699219 10.125 C 17.761719 10.558594 17.8125 10.988281 17.832031 11.425781 C 17.824219 13.117188 16.902344 14.617188 16.703125 16.277344 C 16.238281 18.039062 16.757812 19.960938 15.921875 21.636719 C 15.527344 22.433594 16.21875 23.285156 15.847656 24.082031 C 15.589844 24.875 15.292969 25.65625 15.003906 26.4375 C 14.847656 26.832031 14.707031 27.238281 14.585938 27.648438 L 14.753906 28.160156 L 18.625 28.160156 L 15.492188 30.445312 L 16.683594 34.121094 L 13.558594 31.847656 L 12.839844 32.371094 C 12.058594 34.132812 10.875 35.710938 10.238281 37.542969 C 9.277344 38.453125 7.972656 39.195312 7.601562 40.566406 C 7.324219 41.285156 7.917969 41.964844 7.847656 42.6875 C 7.601562 43.128906 7.078125 43.324219 6.742188 43.691406 C 6.847656 44.417969 6.890625 45.164062 7.082031 45.878906 C 7.667969 47.28125 7.671875 48.855469 7.433594 50.335938 C 7.335938 50.933594 6.605469 51.132812 6.410156 51.6875 C 6.144531 52.53125 6.257812 53.433594 6.074219 54.289062 C 5.597656 54.980469 4.804688 55.367188 4.308594 56.042969 C 4 56.621094 3.988281 57.300781 3.859375 57.929688 C 4.925781 59.082031 5.304688 60.660156 5.570312 62.160156 C 5.695312 63.007812 4.421875 63.289062 4.535156 64.144531 C 4.488281 65.0625 4.871094 66.03125 4.476562 66.910156 C 4.386719 67.226562 4.074219 67.636719 4.414062 67.917969 C 5.675781 69.261719 6.300781 71.019531 7.097656 72.648438 C 6.847656 73.132812 6.617188 73.625 6.4375 74.136719 C 7.015625 74.667969 7.460938 75.339844 8.117188 75.789062 C 8.386719 75.277344 8.34375 74.699219 8.40625 74.144531 C 8.777344 73.808594 9.257812 74.082031 9.609375 74.296875 C 9.753906 75.25 9.65625 76.210938 9.3125 77.113281 C 9.675781 77.300781 10.035156 77.496094 10.390625 77.699219 C 10.105469 78.136719 9.808594 78.566406 9.496094 78.984375 C 8.9375 78.550781 8.402344 78.089844 7.957031 77.542969 C 8.003906 78.761719 7.925781 79.988281 8.039062 81.203125 C 8.640625 81.960938 9.503906 82.492188 10.234375 83.125 C 10.363281 83.519531 10.355469 83.917969 10.238281 84.289062 L 12.367188 84.289062 L 13.558594 80.601562 L 14.753906 84.289062 L 18.625 84.289062 L 15.492188 86.574219 L 16.683594 90.261719 L 13.558594 87.976562 L 10.585938 90.152344 C 11.328125 91.890625 12.191406 93.578125 13.210938 95.167969 L 133.671875 95.167969 Z M 15.488281 67.859375 L 16.683594 71.546875 L 13.558594 69.269531 L 10.433594 71.546875 L 11.628906 67.859375 L 8.492188 65.582031 L 12.363281 65.582031 L 13.558594 61.894531 L 14.75 65.582031 L 18.621094 65.582031 Z M 15.488281 49.152344 L 16.683594 52.839844 L 13.558594 50.554688 L 10.433594 52.839844 L 11.625 49.152344 L 8.492188 46.875 L 12.363281 46.875 L 13.558594 43.191406 L 14.753906 46.875 L 18.621094 46.875 Z M 27.574219 80.902344 L 24.445312 78.628906 L 21.316406 80.902344 L 22.507812 77.214844 L 19.386719 74.941406 L 23.246094 74.941406 L 24.441406 71.253906 L 25.644531 74.941406 L 29.503906 74.941406 L 26.382812 77.214844 Z M 26.382812 58.507812 L 27.574219 62.199219 L 24.445312 59.914062 L 21.316406 62.199219 L 22.511719 58.507812 L 19.386719 56.222656 L 23.246094 56.222656 L 24.441406 52.539062 L 25.640625 56.222656 L 29.503906 56.222656 Z M 26.382812 39.792969 L 27.574219 43.480469 L 24.445312 41.207031 L 21.316406 43.480469 L 22.507812 39.792969 L 19.386719 37.519531 L 23.246094 37.519531 L 24.441406 33.832031 L 25.640625 37.519531 L 29.503906 37.519531 Z M 26.382812 21.085938 L 27.574219 24.773438 L 24.445312 22.492188 L 21.316406 24.773438 L 22.507812 21.085938 L 19.386719 18.8125 L 23.246094 18.8125 L 24.441406 15.125 L 25.644531 18.8125 L 29.503906 18.8125 Z M 38.457031 90.261719 L 35.332031 87.976562 L 32.207031 90.261719 L 33.402344 86.570312 L 30.269531 84.289062 L 34.140625 84.289062 L 35.332031 80.601562 L 36.527344 84.289062 L 40.398438 84.289062 L 37.265625 86.570312 Z M 37.261719 67.859375 L 38.457031 71.546875 L 35.332031 69.269531 L 32.207031 71.546875 L 33.402344 67.859375 L 30.269531 65.582031 L 34.140625 65.582031 L 35.332031 61.894531 L 36.527344 65.582031 L 40.398438 65.582031 Z M 37.265625 49.152344 L 38.457031 52.839844 L 35.332031 50.554688 L 32.207031 52.839844 L 33.402344 49.152344 L 30.269531 46.875 L 34.136719 46.875 L 35.332031 43.1875 L 36.527344 46.875 L 40.398438 46.875 Z M 37.265625 30.441406 L 38.457031 34.121094 L 35.332031 31.84375 L 32.207031 34.121094 L 33.402344 30.441406 L 30.269531 28.160156 L 34.140625 28.160156 L 35.332031 24.472656 L 36.527344 28.160156 L 40.398438 28.160156 Z M 37.265625 11.730469 L 38.457031 15.414062 L 35.332031 13.140625 L 32.207031 15.414062 L 33.402344 11.730469 L 30.269531 9.453125 L 34.140625 9.453125 L 35.332031 5.765625 L 36.527344 9.453125 L 40.398438 9.453125 Z M 49.351562 80.902344 L 46.222656 78.628906 L 43.089844 80.902344 L 44.285156 77.214844 L 41.164062 74.9375 L 45.019531 74.9375 L 46.214844 71.253906 L 47.414062 74.9375 L 51.28125 74.9375 L 48.15625 77.214844 Z M 48.15625 58.507812 L 49.351562 62.195312 L 46.222656 59.914062 L 43.089844 62.195312 L 44.285156 58.507812 L 41.164062 56.222656 L 45.023438 56.222656 L 46.214844 52.535156 L 47.410156 56.222656 L 51.28125 56.222656 Z M 48.15625 39.792969 L 49.351562 43.480469 L 46.222656 41.203125 L 43.089844 43.480469 L 44.285156 39.792969 L 41.164062 37.515625 L 45.023438 37.515625 L 46.214844 33.828125 L 47.410156 37.515625 L 51.28125 37.515625 Z M 48.15625 21.085938 L 49.351562 24.773438 L 46.222656 22.492188 L 43.089844 24.773438 L 44.285156 21.085938 L 41.164062 18.808594 L 45.019531 18.808594 L 46.214844 15.125 L 47.414062 18.808594 L 51.28125 18.808594 Z M 60.234375 90.261719 L 57.109375 87.976562 L 53.972656 90.261719 L 55.175781 86.570312 L 52.042969 84.285156 L 55.914062 84.285156 L 57.109375 80.597656 L 58.304688 84.285156 L 62.171875 84.285156 L 59.039062 86.570312 Z M 59.039062 67.859375 L 60.234375 71.542969 L 57.109375 69.265625 L 53.972656 71.542969 L 55.175781 67.855469 L 52.042969 65.582031 L 55.914062 65.582031 L 57.109375 61.894531 L 58.304688 65.582031 L 62.171875 65.582031 Z M 59.042969 49.152344 L 60.234375 52.835938 L 57.109375 50.554688 L 53.972656 52.835938 L 55.175781 49.148438 L 52.042969 46.875 L 55.914062 46.875 L 57.109375 43.1875 L 58.304688 46.875 L 62.175781 46.875 Z M 59.042969 30.441406 L 60.234375 34.121094 L 57.109375 31.84375 L 53.972656 34.121094 L 55.175781 30.4375 L 52.042969 28.15625 L 55.914062 28.15625 L 57.109375 24.46875 L 58.304688 28.15625 L 62.175781 28.15625 Z M 71.125 80.902344 L 67.996094 78.625 L 64.867188 80.902344 L 66.058594 77.214844 L 62.9375 74.9375 L 66.796875 74.9375 L 67.992188 71.25 L 69.1875 74.9375 L 73.054688 74.9375 L 69.929688 77.210938 Z M 69.929688 58.5 L 71.125 62.195312 L 67.996094 59.914062 L 64.867188 62.195312 L 66.0625 58.503906 L 62.9375 56.222656 L 66.796875 56.222656 L 67.992188 52.535156 L 69.183594 56.222656 L 73.054688 56.222656 Z M 69.929688 39.785156 L 71.125 43.480469 L 67.996094 41.203125 L 64.867188 43.480469 L 66.058594 39.789062 L 62.9375 37.515625 L 66.796875 37.515625 L 67.992188 33.828125 L 69.183594 37.515625 L 73.054688 37.515625 Z M 69.929688 21.078125 L 71.125 24.773438 L 67.996094 22.488281 L 64.867188 24.773438 L 66.058594 21.082031 L 62.9375 18.808594 L 66.796875 18.808594 L 67.992188 15.121094 L 69.1875 18.808594 L 73.054688 18.808594 Z M 82.007812 90.257812 L 78.882812 87.972656 L 75.75 90.257812 L 76.949219 86.566406 L 73.820312 84.285156 L 77.691406 84.285156 L 78.882812 80.597656 L 80.078125 84.285156 L 83.949219 84.285156 L 80.816406 86.570312 Z M 80.8125 67.859375 L 82.007812 71.542969 L 78.882812 69.265625 L 75.75 71.542969 L 76.953125 67.855469 L 73.820312 65.578125 L 77.691406 65.578125 L 78.882812 61.894531 L 80.078125 65.578125 L 83.949219 65.578125 Z M 80.816406 49.148438 L 82.007812 52.835938 L 78.882812 50.550781 L 75.75 52.835938 L 76.949219 49.148438 L 73.820312 46.875 L 77.6875 46.875 L 78.882812 43.1875 L 80.078125 46.875 L 83.949219 46.875 Z M 80.816406 30.441406 L 82.007812 34.121094 L 78.882812 31.84375 L 75.75 34.121094 L 76.949219 30.4375 L 73.820312 28.15625 L 77.691406 28.15625 L 78.882812 24.46875 L 80.078125 28.15625 L 83.949219 28.15625 Z M 92.902344 80.902344 L 89.769531 78.621094 L 86.640625 80.902344 L 87.835938 77.214844 L 84.703125 74.9375 L 88.570312 74.9375 L 89.765625 71.25 L 90.964844 74.9375 L 94.832031 74.9375 L 91.703125 77.210938 Z M 91.699219 58.503906 L 92.902344 62.195312 L 89.769531 59.910156 L 86.640625 62.195312 L 87.835938 58.503906 L 84.703125 56.222656 L 88.574219 56.222656 L 89.765625 52.535156 L 90.960938 56.222656 L 94.832031 56.222656 Z M 91.703125 39.789062 L 92.902344 43.476562 L 89.769531 41.199219 L 86.640625 43.476562 L 87.835938 39.792969 L 84.703125 37.515625 L 88.574219 37.515625 L 89.765625 33.828125 L 90.960938 37.515625 L 94.832031 37.515625 Z M 103.785156 90.257812 L 100.65625 87.976562 L 97.523438 90.257812 L 98.71875 86.5625 L 95.59375 84.285156 L 99.464844 84.285156 L 100.660156 80.597656 L 101.851562 84.285156 L 105.714844 84.285156 L 102.589844 86.566406 Z M 102.589844 67.855469 L 103.785156 71.542969 L 100.65625 69.265625 L 97.523438 71.542969 L 98.722656 67.851562 L 95.59375 65.578125 L 99.464844 65.578125 L 100.660156 61.890625 L 101.851562 65.578125 L 105.714844 65.578125 Z M 102.589844 49.148438 L 103.785156 52.835938 L 100.65625 50.554688 L 97.523438 52.835938 L 98.71875 49.144531 L 95.59375 46.871094 L 99.464844 46.871094 L 100.660156 43.1875 L 101.855469 46.871094 L 105.714844 46.871094 Z M 102.589844 30.4375 L 103.785156 34.121094 L 100.65625 31.84375 L 97.523438 34.121094 L 98.71875 30.433594 L 95.59375 28.15625 L 99.464844 28.15625 L 100.660156 24.46875 L 101.851562 28.15625 L 105.714844 28.15625 Z M 114.675781 80.902344 L 111.542969 78.621094 L 108.417969 80.902344 L 109.609375 77.214844 L 106.476562 74.9375 L 110.347656 74.9375 L 111.542969 71.25 L 112.738281 74.9375 L 116.605469 74.9375 L 113.476562 77.210938 Z M 113.476562 58.503906 L 114.675781 62.195312 L 111.542969 59.910156 L 108.417969 62.195312 L 109.609375 58.503906 L 106.476562 56.222656 L 110.347656 56.222656 L 111.542969 52.535156 L 112.734375 56.222656 L 116.605469 56.222656 Z M 113.476562 39.789062 L 114.675781 43.476562 L 111.542969 41.199219 L 108.417969 43.476562 L 109.609375 39.792969 L 106.476562 37.515625 L 110.347656 37.515625 L 111.542969 33.828125 L 112.734375 37.515625 L 116.605469 37.515625 Z M 125.558594 90.257812 L 122.429688 87.976562 L 119.300781 90.257812 L 120.492188 86.566406 L 117.371094 84.285156 L 121.242188 84.285156 L 122.433594 80.597656 L 123.628906 84.285156 L 127.488281 84.285156 L 124.363281 86.566406 Z M 124.363281 67.855469 L 125.558594 71.542969 L 122.429688 69.265625 L 119.300781 71.542969 L 120.496094 67.855469 L 117.371094 65.578125 L 121.242188 65.578125 L 122.433594 61.890625 L 123.628906 65.578125 L 127.488281 65.578125 Z M 124.367188 49.148438 L 125.558594 52.835938 L 122.429688 50.554688 L 119.300781 52.835938 L 120.492188 49.148438 L 117.371094 46.871094 L 121.238281 46.871094 L 122.433594 43.1875 L 123.628906 46.871094 L 127.488281 46.871094 Z M 124.367188 30.4375 L 125.558594 34.121094 L 122.429688 31.84375 L 119.300781 34.121094 L 120.492188 30.4375 L 117.371094 28.15625 L 121.242188 28.15625 L 122.433594 24.46875 L 123.628906 28.15625 L 127.488281 28.15625 Z M 124.367188 30.4375 "/>
<path style=" stroke:none;fill-rule:nonzero;fill:rgb(100%,100%,100%);fill-opacity:1;" d="M 17.585938 9.453125 C 17.625 9.679688 17.664062 9.902344 17.699219 10.128906 L 18.625 9.453125 Z M 17.585938 9.453125 "/>
<path style=" stroke:none;fill-rule:nonzero;fill:rgb(100%,100%,100%);fill-opacity:1;" d="M 35.335938 5.765625 L 34.140625 9.453125 L 30.269531 9.453125 L 33.402344 11.730469 L 32.210938 15.417969 L 35.335938 13.140625 L 38.460938 15.417969 L 37.265625 11.730469 L 40.398438 9.453125 L 36.527344 9.453125 Z M 35.335938 5.765625 "/>
<path style=" stroke:none;fill-rule:nonzero;fill:rgb(100%,100%,100%);fill-opacity:1;" d="M 55.175781 11.730469 L 53.976562 15.417969 L 57.109375 13.140625 L 60.234375 15.417969 L 59.042969 11.730469 L 60.625 10.582031 C 60.246094 10.503906 59.867188 10.425781 59.488281 10.347656 C 58.109375 10.089844 56.757812 9.675781 55.351562 9.597656 C 55.242188 9.542969 55.128906 9.496094 55.011719 9.453125 L 52.046875 9.453125 Z M 55.175781 11.730469 "/>
<path style=" stroke:none;fill-rule:nonzero;fill:rgb(100%,100%,100%);fill-opacity:1;" d="M 77.664062 14.027344 C 77.203125 13.945312 76.742188 13.863281 76.285156 13.78125 L 75.75 15.417969 Z M 77.664062 14.027344 "/>
<path style=" stroke:none;fill-rule:nonzero;fill:rgb(100%,100%,100%);fill-opacity:1;" d="M 81.773438 14.683594 C 81.453125 14.636719 81.128906 14.589844 80.808594 14.539062 L 82.011719 15.417969 Z M 81.773438 14.683594 "/>
<path style=" stroke:none;fill-rule:nonzero;fill:rgb(100%,100%,100%);fill-opacity:1;" d="M 24.441406 15.125 L 23.246094 18.8125 L 19.386719 18.8125 L 22.511719 21.085938 L 21.316406 24.777344 L 24.445312 22.492188 L 27.578125 24.777344 L 26.382812 21.085938 L 29.507812 18.8125 L 25.644531 18.8125 Z M 24.441406 15.125 "/>
<path style=" stroke:none;fill-rule:nonzero;fill:rgb(100%,100%,100%);fill-opacity:1;" d="M 46.21875 15.125 L 45.023438 18.8125 L 41.164062 18.8125 L 44.289062 21.085938 L 43.09375 24.777344 L 46.222656 22.492188 L 49.351562 24.777344 L 48.160156 21.085938 L 51.28125 18.8125 L 47.414062 18.8125 Z M 46.21875 15.125 "/>
<path style=" stroke:none;fill-rule:nonzero;fill:rgb(100%,100%,100%);fill-opacity:1;" d="M 67.992188 15.125 L 66.796875 18.8125 L 62.9375 18.8125 L 66.0625 21.085938 L 64.867188 24.777344 L 67.996094 22.492188 L 71.128906 24.777344 L 69.933594 21.082031 L 73.058594 18.8125 L 69.1875 18.8125 Z M 67.992188 15.125 "/>
<path style=" stroke:none;fill-rule:nonzero;fill:rgb(100%,100%,100%);fill-opacity:1;" d="M 84.703125 18.8125 L 87.835938 21.089844 L 86.644531 24.777344 L 89.769531 22.492188 L 92.902344 24.777344 L 91.703125 21.089844 L 94.832031 18.8125 L 90.964844 18.8125 L 89.9375 15.640625 C 89.828125 15.632812 89.71875 15.621094 89.613281 15.609375 L 88.574219 18.8125 Z M 84.703125 18.8125 "/>
<path style=" stroke:none;fill-rule:nonzero;fill:rgb(100%,100%,100%);fill-opacity:1;" d="M 106.480469 18.8125 L 109.613281 21.089844 L 108.417969 24.777344 L 111.546875 22.492188 L 114.679688 24.777344 L 113.480469 21.089844 L 116.609375 18.8125 L 112.738281 18.8125 L 112.273438 17.375 C 112.199219 17.367188 112.121094 17.363281 112.046875 17.359375 C 111.652344 17.3125 111.253906 17.265625 110.859375 17.242188 L 110.347656 18.8125 Z M 106.480469 18.8125 "/>
<path style=" stroke:none;fill-rule:nonzero;fill:rgb(100%,100%,100%);fill-opacity:1;" d="M 16.683594 34.125 L 15.492188 30.445312 L 18.625 28.160156 L 14.753906 28.160156 L 14.585938 27.648438 C 14.53125 27.839844 14.476562 28.035156 14.425781 28.234375 C 14.269531 28.398438 14.160156 28.597656 14.097656 28.824219 C 13.867188 29.5 13.628906 30.171875 13.378906 30.84375 C 13.246094 31.375 13.058594 31.878906 12.839844 32.371094 L 13.558594 31.847656 Z M 16.683594 34.125 "/>
<path style=" stroke:none;fill-rule:nonzero;fill:rgb(100%,100%,100%);fill-opacity:1;" d="M 35.335938 24.472656 L 34.140625 28.160156 L 30.269531 28.160156 L 33.402344 30.445312 L 32.210938 34.125 L 35.335938 31.847656 L 38.460938 34.125 L 37.265625 30.445312 L 40.398438 28.160156 L 36.527344 28.160156 Z M 35.335938 24.472656 "/>
<path style=" stroke:none;fill-rule:nonzero;fill:rgb(100%,100%,100%);fill-opacity:1;" d="M 57.109375 24.472656 L 55.917969 28.160156 L 52.046875 28.160156 L 55.175781 30.441406 L 53.976562 34.125 L 57.109375 31.847656 L 60.234375 34.125 L 59.042969 30.445312 L 62.175781 28.160156 L 58.304688 28.160156 Z M 57.109375 24.472656 "/>
<path style=" stroke:none;fill-rule:nonzero;fill:rgb(100%,100%,100%);fill-opacity:1;" d="M 78.886719 24.472656 L 77.691406 28.160156 L 73.820312 28.160156 L 76.953125 30.441406 L 75.75 34.125 L 78.882812 31.847656 L 82.011719 34.125 L 80.816406 30.445312 L 83.949219 28.160156 L 80.078125 28.160156 Z M 78.886719 24.472656 "/>
<path style=" stroke:none;fill-rule:nonzero;fill:rgb(100%,100%,100%);fill-opacity:1;" d="M 100.660156 24.472656 L 99.46875 28.160156 L 95.597656 28.160156 L 98.722656 30.4375 L 97.527344 34.125 L 100.65625 31.847656 L 103.785156 34.125 L 102.59375 30.441406 L 105.714844 28.160156 L 101.855469 28.160156 Z M 100.660156 24.472656 "/>
<path style=" stroke:none;fill-rule:nonzero;fill:rgb(100%,100%,100%);fill-opacity:1;" d="M 122.433594 24.472656 L 121.246094 28.160156 L 117.371094 28.160156 L 120.492188 30.441406 L 119.304688 34.125 L 122.433594 31.847656 L 125.566406 34.125 L 124.363281 30.441406 L 127.496094 28.160156 L 123.632812 28.160156 Z M 122.433594 24.472656 "/>
<path style=" stroke:none;fill-rule:nonzero;fill:rgb(100%,100%,100%);fill-opacity:1;" d="M 24.441406 33.832031 L 23.25 37.519531 L 19.386719 37.519531 L 22.511719 39.792969 L 21.316406 43.480469 L 24.445312 41.207031 L 27.578125 43.480469 L 26.382812 39.792969 L 29.507812 37.519531 L 25.644531 37.519531 Z M 24.441406 33.832031 "/>
<path style=" stroke:none;fill-rule:nonzero;fill:rgb(100%,100%,100%);fill-opacity:1;" d="M 46.21875 33.832031 L 45.023438 37.519531 L 41.164062 37.519531 L 44.289062 39.792969 L 43.09375 43.480469 L 46.222656 41.207031 L 49.351562 43.480469 L 48.160156 39.792969 L 51.28125 37.519531 L 47.410156 37.519531 Z M 46.21875 33.832031 "/>
<path style=" stroke:none;fill-rule:nonzero;fill:rgb(100%,100%,100%);fill-opacity:1;" d="M 67.992188 33.832031 L 66.800781 37.519531 L 62.9375 37.519531 L 66.0625 39.792969 L 64.867188 43.480469 L 67.996094 41.207031 L 71.128906 43.480469 L 69.933594 39.789062 L 73.058594 37.519531 L 69.1875 37.519531 Z M 67.992188 33.832031 "/>
<path style=" stroke:none;fill-rule:nonzero;fill:rgb(100%,100%,100%);fill-opacity:1;" d="M 89.769531 33.832031 L 88.574219 37.519531 L 84.703125 37.519531 L 87.835938 39.796875 L 86.644531 43.480469 L 89.769531 41.203125 L 92.902344 43.480469 L 91.703125 39.792969 L 94.832031 37.519531 L 90.960938 37.519531 Z M 89.769531 33.832031 "/>
<path style=" stroke:none;fill-rule:nonzero;fill:rgb(100%,100%,100%);fill-opacity:1;" d="M 111.546875 33.832031 L 110.347656 37.519531 L 106.480469 37.519531 L 109.613281 39.796875 L 108.417969 43.480469 L 111.546875 41.203125 L 114.675781 43.480469 L 113.476562 39.792969 L 116.609375 37.519531 L 112.734375 37.519531 Z M 111.546875 33.832031 "/>
<path style=" stroke:none;fill-rule:nonzero;fill:rgb(100%,100%,100%);fill-opacity:1;" d="M 13.558594 43.191406 L 12.363281 46.875 L 8.496094 46.875 L 11.628906 49.152344 L 10.433594 52.839844 L 13.558594 50.554688 L 16.683594 52.839844 L 15.492188 49.152344 L 18.625 46.875 L 14.753906 46.875 Z M 13.558594 43.191406 "/>
<path style=" stroke:none;fill-rule:nonzero;fill:rgb(100%,100%,100%);fill-opacity:1;" d="M 35.335938 43.191406 L 34.140625 46.875 L 30.269531 46.875 L 33.402344 49.152344 L 32.210938 52.839844 L 35.335938 50.554688 L 38.460938 52.839844 L 37.265625 49.152344 L 40.398438 46.875 L 36.53125 46.875 Z M 35.335938 43.191406 "/>
<path style=" stroke:none;fill-rule:nonzero;fill:rgb(100%,100%,100%);fill-opacity:1;" d="M 57.109375 43.191406 L 55.914062 46.875 L 52.046875 46.875 L 55.175781 49.152344 L 53.976562 52.839844 L 57.109375 50.554688 L 60.234375 52.839844 L 59.042969 49.152344 L 62.175781 46.875 L 58.304688 46.875 Z M 57.109375 43.191406 "/>
<path style=" stroke:none;fill-rule:nonzero;fill:rgb(100%,100%,100%);fill-opacity:1;" d="M 78.886719 43.191406 L 77.691406 46.875 L 73.820312 46.875 L 76.953125 49.152344 L 75.75 52.839844 L 78.882812 50.554688 L 82.011719 52.839844 L 80.816406 49.152344 L 83.949219 46.875 L 80.082031 46.875 Z M 78.886719 43.191406 "/>
<path style=" stroke:none;fill-rule:nonzero;fill:rgb(100%,100%,100%);fill-opacity:1;" d="M 100.660156 43.191406 L 99.464844 46.875 L 95.597656 46.875 L 98.722656 49.148438 L 97.527344 52.839844 L 100.65625 50.558594 L 103.785156 52.839844 L 102.59375 49.152344 L 105.714844 46.875 L 101.859375 46.875 Z M 100.660156 43.191406 "/>
<path style=" stroke:none;fill-rule:nonzero;fill:rgb(100%,100%,100%);fill-opacity:1;" d="M 122.433594 43.191406 L 121.246094 46.875 L 117.371094 46.875 L 120.492188 49.152344 L 119.304688 52.839844 L 122.433594 50.558594 L 125.566406 52.839844 L 124.363281 49.152344 L 127.496094 46.875 L 123.632812 46.875 Z M 122.433594 43.191406 "/>
<path style=" stroke:none;fill-rule:nonzero;fill:rgb(100%,100%,100%);fill-opacity:1;" d="M 24.441406 52.539062 L 23.25 56.226562 L 19.386719 56.226562 L 22.511719 58.507812 L 21.316406 62.199219 L 24.445312 59.914062 L 27.578125 62.199219 L 26.382812 58.507812 L 29.507812 56.226562 L 25.644531 56.226562 Z M 24.441406 52.539062 "/>
<path style=" stroke:none;fill-rule:nonzero;fill:rgb(100%,100%,100%);fill-opacity:1;" d="M 46.21875 52.539062 L 45.023438 56.226562 L 41.164062 56.226562 L 44.289062 58.507812 L 43.09375 62.199219 L 46.222656 59.914062 L 49.351562 62.199219 L 48.15625 58.507812 L 51.28125 56.226562 L 47.410156 56.226562 Z M 46.21875 52.539062 "/>
<path style=" stroke:none;fill-rule:nonzero;fill:rgb(100%,100%,100%);fill-opacity:1;" d="M 67.992188 52.539062 L 66.800781 56.226562 L 62.9375 56.226562 L 66.0625 58.507812 L 64.867188 62.199219 L 67.996094 59.914062 L 71.128906 62.199219 L 69.933594 58.503906 L 73.058594 56.226562 L 69.1875 56.226562 Z M 67.992188 52.539062 "/>
<path style=" stroke:none;fill-rule:nonzero;fill:rgb(100%,100%,100%);fill-opacity:1;" d="M 89.769531 52.539062 L 88.574219 56.226562 L 84.703125 56.226562 L 87.835938 58.507812 L 86.644531 62.199219 L 89.769531 59.914062 L 92.902344 62.199219 L 91.703125 58.507812 L 94.832031 56.226562 L 90.960938 56.226562 Z M 89.769531 52.539062 "/>
<path style=" stroke:none;fill-rule:nonzero;fill:rgb(100%,100%,100%);fill-opacity:1;" d="M 111.546875 52.539062 L 110.347656 56.226562 L 106.480469 56.226562 L 109.613281 58.507812 L 108.417969 62.199219 L 111.546875 59.914062 L 114.675781 62.199219 L 113.476562 58.507812 L 116.609375 56.226562 L 112.734375 56.226562 Z M 111.546875 52.539062 "/>
<path style=" stroke:none;fill-rule:nonzero;fill:rgb(100%,100%,100%);fill-opacity:1;" d="M 13.558594 61.894531 L 12.367188 65.582031 L 8.496094 65.582031 L 11.628906 67.859375 L 10.433594 71.546875 L 13.558594 69.269531 L 16.683594 71.546875 L 15.488281 67.859375 L 18.625 65.582031 L 14.753906 65.582031 Z M 13.558594 61.894531 "/>
<path style=" stroke:none;fill-rule:nonzero;fill:rgb(100%,100%,100%);fill-opacity:1;" d="M 35.335938 61.894531 L 34.140625 65.582031 L 30.269531 65.582031 L 33.40625 67.859375 L 32.210938 71.546875 L 35.335938 69.269531 L 38.460938 71.546875 L 37.265625 67.859375 L 40.398438 65.582031 L 36.527344 65.582031 Z M 35.335938 61.894531 "/>
<path style=" stroke:none;fill-rule:nonzero;fill:rgb(100%,100%,100%);fill-opacity:1;" d="M 57.109375 61.894531 L 55.917969 65.582031 L 52.046875 65.582031 L 55.179688 67.859375 L 53.976562 71.546875 L 57.109375 69.269531 L 60.234375 71.546875 L 59.039062 67.859375 L 62.175781 65.582031 L 58.304688 65.582031 Z M 57.109375 61.894531 "/>
<path style=" stroke:none;fill-rule:nonzero;fill:rgb(100%,100%,100%);fill-opacity:1;" d="M 78.886719 61.894531 L 77.691406 65.582031 L 73.820312 65.582031 L 76.953125 67.859375 L 75.75 71.546875 L 78.882812 69.269531 L 82.011719 71.546875 L 80.816406 67.859375 L 83.949219 65.582031 L 80.078125 65.582031 Z M 78.886719 61.894531 "/>
<path style=" stroke:none;fill-rule:nonzero;fill:rgb(100%,100%,100%);fill-opacity:1;" d="M 100.660156 61.894531 L 99.46875 65.582031 L 95.597656 65.582031 L 98.722656 67.855469 L 97.527344 71.546875 L 100.65625 69.269531 L 103.785156 71.546875 L 102.589844 67.859375 L 105.714844 65.582031 L 101.855469 65.582031 Z M 100.660156 61.894531 "/>
<path style=" stroke:none;fill-rule:nonzero;fill:rgb(100%,100%,100%);fill-opacity:1;" d="M 122.433594 61.894531 L 121.246094 65.582031 L 117.371094 65.582031 L 120.492188 67.859375 L 119.304688 71.546875 L 122.433594 69.269531 L 125.566406 71.546875 L 124.363281 67.859375 L 127.496094 65.582031 L 123.632812 65.582031 Z M 122.433594 61.894531 "/>
<path style=" stroke:none;fill-rule:nonzero;fill:rgb(100%,100%,100%);fill-opacity:1;" d="M 25.644531 74.941406 L 24.441406 71.253906 L 23.246094 74.941406 L 19.386719 74.941406 L 22.511719 77.214844 L 21.316406 80.90625 L 24.445312 78.628906 L 27.578125 80.90625 L 26.382812 77.214844 L 29.507812 74.941406 Z M 25.644531 74.941406 "/>
<path style=" stroke:none;fill-rule:nonzero;fill:rgb(100%,100%,100%);fill-opacity:1;" d="M 47.414062 74.941406 L 46.21875 71.253906 L 45.023438 74.941406 L 41.164062 74.941406 L 44.285156 77.214844 L 43.09375 80.90625 L 46.222656 78.628906 L 49.351562 80.90625 L 48.160156 77.214844 L 51.28125 74.941406 Z M 46.222656 76.589844 Z M 46.222656 76.589844 "/>
<path style=" stroke:none;fill-rule:nonzero;fill:rgb(100%,100%,100%);fill-opacity:1;" d="M 69.1875 74.941406 L 67.992188 71.253906 L 66.796875 74.941406 L 62.9375 74.941406 L 66.0625 77.214844 L 64.867188 80.90625 L 67.996094 78.628906 L 71.128906 80.90625 L 69.933594 77.210938 L 73.058594 74.941406 Z M 69.1875 74.941406 "/>
<path style=" stroke:none;fill-rule:nonzero;fill:rgb(100%,100%,100%);fill-opacity:1;" d="M 90.964844 74.941406 L 89.769531 71.253906 L 88.574219 74.941406 L 84.703125 74.941406 L 87.835938 77.21875 L 86.644531 80.90625 L 89.769531 78.628906 L 92.902344 80.90625 L 91.703125 77.214844 L 94.832031 74.941406 Z M 89.769531 76.589844 Z M 89.769531 76.589844 "/>
<path style=" stroke:none;fill-rule:nonzero;fill:rgb(100%,100%,100%);fill-opacity:1;" d="M 112.734375 74.941406 L 111.546875 71.253906 L 110.347656 74.941406 L 106.480469 74.941406 L 109.613281 77.21875 L 108.417969 80.90625 L 111.546875 78.625 L 114.675781 80.90625 L 113.476562 77.214844 L 116.609375 74.941406 Z M 112.734375 74.941406 "/>
<path style=" stroke:none;fill-rule:nonzero;fill:rgb(100%,100%,100%);fill-opacity:1;" d="M 16.683594 90.261719 L 15.492188 86.574219 L 18.625 84.289062 L 14.753906 84.289062 L 13.558594 80.601562 L 12.367188 84.289062 L 10.238281 84.289062 C 10.164062 84.527344 10.042969 84.753906 9.882812 84.964844 C 9.820312 85.03125 9.753906 85.09375 9.679688 85.152344 L 11.628906 86.574219 L 10.519531 89.996094 C 10.542969 90.046875 10.566406 90.101562 10.585938 90.152344 L 13.558594 87.980469 Z M 16.683594 90.261719 "/>
<path style=" stroke:none;fill-rule:nonzero;fill:rgb(100%,100%,100%);fill-opacity:1;" d="M 36.527344 84.289062 L 35.335938 80.601562 L 34.140625 84.289062 L 30.269531 84.289062 L 33.402344 86.574219 L 32.210938 90.261719 L 35.335938 87.980469 L 38.460938 90.261719 L 37.265625 86.574219 L 40.398438 84.289062 Z M 36.527344 84.289062 "/>
<path style=" stroke:none;fill-rule:nonzero;fill:rgb(100%,100%,100%);fill-opacity:1;" d="M 58.304688 84.289062 L 57.109375 80.601562 L 55.917969 84.289062 L 52.046875 84.289062 L 55.175781 86.570312 L 53.976562 90.261719 L 57.109375 87.976562 L 60.234375 90.261719 L 59.042969 86.574219 L 62.175781 84.289062 Z M 58.304688 84.289062 "/>
<path style=" stroke:none;fill-rule:nonzero;fill:rgb(100%,100%,100%);fill-opacity:1;" d="M 80.078125 84.289062 L 78.886719 80.601562 L 77.691406 84.289062 L 73.820312 84.289062 L 76.953125 86.570312 L 75.75 90.261719 L 78.882812 87.976562 L 82.011719 90.261719 L 80.816406 86.574219 L 83.949219 84.289062 Z M 80.078125 84.289062 "/>
<path style=" stroke:none;fill-rule:nonzero;fill:rgb(100%,100%,100%);fill-opacity:1;" d="M 101.855469 84.289062 L 100.660156 80.601562 L 99.46875 84.289062 L 95.597656 84.289062 L 98.722656 86.566406 L 97.527344 90.261719 L 100.65625 87.980469 L 103.785156 90.261719 L 102.589844 86.570312 L 105.714844 84.289062 Z M 101.855469 84.289062 "/>
<path style=" stroke:none;fill-rule:nonzero;fill:rgb(100%,100%,100%);fill-opacity:1;" d="M 123.632812 84.289062 L 122.433594 80.601562 L 121.246094 84.289062 L 117.371094 84.289062 L 120.492188 86.570312 L 119.304688 90.261719 L 122.433594 87.980469 L 125.566406 90.261719 L 124.363281 86.570312 L 127.496094 84.289062 Z M 123.632812 84.289062 "/>
<path style=" stroke:none;fill-rule:nonzero;fill:rgb(100%,100%,100%);fill-opacity:1;" d="M 133.671875 68.515625 L 133.671875 81.839844 L 250.359375 81.839844 C 250.082031 81.039062 249.210938 80.425781 248.59375 79.886719 C 247.742188 79.257812 247.539062 78.167969 247.433594 77.179688 C 247.601562 77.136719 247.9375 77.046875 248.105469 77 C 247.699219 75.128906 247.300781 73.09375 248.039062 71.246094 C 248.324219 70.414062 249.144531 69.980469 249.875 69.601562 C 250.011719 71.015625 248.851562 72.242188 249.304688 73.65625 C 249.351562 74.132812 249.929688 73.996094 250.269531 74.09375 C 250.308594 75.214844 250.078125 76.359375 250.320312 77.464844 C 250.75 77.804688 251.0625 77.15625 251.453125 77.203125 C 251.914062 78.261719 252.449219 79.285156 253.164062 80.191406 C 253.566406 80.65625 253.539062 81.257812 253.492188 81.839844 L 254.476562 81.839844 C 254.628906 80.847656 254.699219 79.84375 254.75 78.839844 C 254.78125 77.816406 255.722656 77.128906 255.890625 76.152344 C 255.796875 75.707031 255.601562 75.292969 255.425781 74.878906 C 255.035156 74.761719 254.605469 74.667969 254.394531 74.28125 C 253.363281 72.773438 252.292969 71.28125 251.441406 69.660156 C 251.835938 69.417969 252.257812 69.121094 252.753906 69.1875 C 253.074219 69.648438 253.074219 70.257812 253.203125 70.796875 C 253.882812 71.136719 254.582031 71.441406 255.28125 71.734375 C 255.3125 71.929688 255.375 72.316406 255.402344 72.511719 C 255.710938 72.335938 256.085938 72.222656 256.320312 71.933594 C 256.597656 71.171875 256.425781 70.296875 256.832031 69.570312 C 257.019531 69.210938 257.230469 68.863281 257.433594 68.515625 Z M 133.671875 68.515625 "/>
<path style=" stroke:none;fill-rule:nonzero;fill:rgb(100%,100%,100%);fill-opacity:1;" d="M 266.449219 17.863281 C 266.332031 18.671875 265.894531 19.386719 265.703125 20.179688 C 265.601562 20.671875 266.210938 20.8125 266.503906 21.070312 C 266.28125 21.921875 265.875 22.699219 265.414062 23.441406 C 265.136719 23.8125 265.238281 24.273438 265.261719 24.703125 C 264.507812 25.601562 264.136719 26.800781 263.144531 27.5 C 262.855469 27.765625 262.6875 28.175781 262.472656 28.53125 L 275.382812 28.53125 C 275.640625 28.246094 276.019531 28.070312 276.320312 27.835938 C 276.300781 28.070312 276.277344 28.300781 276.257812 28.53125 L 277.765625 28.53125 C 277.789062 28.460938 277.816406 28.386719 277.84375 28.316406 C 278.179688 28.300781 278.523438 28.320312 278.867188 28.269531 C 279.113281 28.027344 279.3125 27.746094 279.539062 27.480469 L 279.566406 27.480469 C 280.503906 26.015625 281.839844 24.886719 283.136719 23.753906 C 282.65625 23.3125 282.214844 22.835938 281.730469 22.402344 C 281.324219 21.992188 280.558594 22.191406 280.261719 21.65625 C 280.011719 21.285156 280.320312 20.84375 280.363281 20.457031 C 279.703125 20.300781 279.050781 20.117188 278.414062 19.886719 C 278.4375 18.792969 277.496094 18.035156 277.3125 16.996094 C 277.191406 16.394531 277.054688 15.796875 276.90625 15.207031 L 266.597656 15.207031 C 266.582031 16.09375 266.578125 16.980469 266.449219 17.863281 Z M 266.449219 17.863281 "/>
<path style=" stroke:none;fill-rule:nonzero;fill:rgb(100%,100%,100%);fill-opacity:1;" d="M 182.742188 27.457031 C 183.441406 27.148438 183.839844 26.398438 183.960938 25.664062 C 183.046875 26.074219 182.253906 26.707031 181.621094 27.484375 L 181.492188 27.484375 C 181.019531 27.824219 180.5625 28.175781 180.105469 28.535156 L 181.824219 28.535156 C 182.152344 28.195312 182.421875 27.804688 182.742188 27.457031 Z M 182.742188 27.457031 "/>
<path style=" stroke:none;fill-rule:nonzero;fill:rgb(100%,100%,100%);fill-opacity:1;" d="M 167.378906 28.53125 C 167.792969 28.136719 168.230469 27.773438 168.699219 27.445312 C 170.421875 26.476562 171.953125 25.171875 173.769531 24.363281 C 174.183594 24.210938 174.4375 23.839844 174.6875 23.496094 C 174.308594 23.378906 173.933594 23.265625 173.554688 23.152344 C 173.507812 23.019531 173.414062 22.753906 173.367188 22.621094 C 172.304688 22.5 171.253906 22.726562 170.207031 22.882812 C 169.898438 22.59375 169.589844 22.3125 169.273438 22.035156 C 168.921875 22.644531 168.652344 23.328125 168.144531 23.824219 C 167.742188 24.214844 167.105469 24.097656 166.660156 23.863281 C 165.9375 23.496094 165.535156 22.753906 164.929688 22.253906 C 163.886719 21.710938 162.816406 22.886719 161.8125 22.257812 C 160.804688 21.84375 160.402344 20.597656 159.300781 20.347656 C 158.867188 20.171875 158.488281 20.488281 158.109375 20.644531 C 157.410156 21.074219 156.625 20.597656 155.929688 20.414062 C 154.734375 19.945312 153.363281 20.277344 152.21875 19.652344 C 151.777344 19.425781 151.265625 19.097656 151.300781 18.53125 C 151.191406 17.539062 151.253906 16.25 150.195312 15.746094 C 150.109375 16.507812 150.53125 18.007812 149.320312 17.960938 C 144.734375 17.957031 140.148438 17.882812 135.5625 17.855469 C 134.933594 17.847656 134.304688 17.84375 133.675781 17.835938 L 133.675781 28.53125 Z M 167.378906 28.53125 "/>
<path style=" stroke:none;fill-rule:nonzero;fill:rgb(100%,100%,100%);fill-opacity:1;" d="M 13.210938 95.167969 C 13.304688 95.316406 13.402344 95.464844 13.5 95.609375 C 14.046875 96.957031 12.867188 98.175781 13.042969 99.527344 C 13.175781 100.398438 13.84375 101.15625 14.683594 101.414062 C 15.972656 101.828125 17.285156 102.269531 18.410156 103.050781 C 18.976562 103.4375 18.953125 104.21875 19.140625 104.816406 C 20.160156 105.351562 21.25 105.746094 22.390625 105.917969 C 23.46875 105.996094 23.75 107.300781 23.519531 108.175781 C 23.632812 108.28125 23.742188 108.382812 23.855469 108.484375 L 247.433594 108.484375 C 247.210938 108.0625 246.867188 107.703125 246.609375 107.304688 C 247.101562 106.949219 247.644531 106.609375 247.976562 106.078125 C 248.632812 105.113281 248.96875 103.855469 250.074219 103.28125 C 251.089844 102.386719 252.457031 103.082031 253.644531 102.859375 C 254.132812 102.773438 254.769531 102.535156 254.859375 101.972656 C 254.75 101.4375 254.511719 100.929688 254.191406 100.496094 C 253.925781 100.476562 253.660156 100.484375 253.402344 100.492188 C 253.25 99.945312 253.117188 99.390625 252.992188 98.835938 C 252.421875 98.816406 251.855469 98.773438 251.296875 98.671875 C 251.632812 98.035156 252.289062 97.664062 252.960938 97.480469 C 253.59375 97.699219 254.148438 98.09375 254.761719 98.363281 C 255.285156 97.445312 255.707031 96.460938 256.34375 95.605469 C 256.386719 95.460938 256.429688 95.316406 256.472656 95.167969 Z M 13.210938 95.167969 "/>
<path style=" stroke:none;fill-rule:nonzero;fill:rgb(100%,100%,100%);fill-opacity:1;" d="M 213.289062 54.96875 L 213.355469 54.96875 C 213.519531 54.257812 213.945312 53.445312 213.496094 52.753906 C 213.152344 52.058594 212.371094 51.800781 211.753906 51.417969 C 211.796875 50.875 211.773438 50.324219 211.566406 49.8125 C 211.257812 48.988281 211.199219 48.105469 210.988281 47.261719 C 210.917969 46.96875 210.730469 46.570312 210.367188 46.660156 C 209.742188 46.738281 209.085938 46.855469 208.558594 47.214844 C 207.839844 47.804688 207.929688 48.800781 207.621094 49.589844 C 206.730469 50.019531 205.527344 49.640625 204.9375 48.882812 C 204.566406 47.910156 205.167969 46.84375 206.125 46.503906 C 206.269531 45.914062 206.332031 45.300781 206.519531 44.722656 C 206.765625 44.253906 207.203125 43.898438 207.367188 43.386719 C 207.46875 42.882812 207.472656 42.371094 207.460938 41.859375 L 194.757812 41.859375 C 194.210938 42.511719 193.890625 43.351562 193.097656 43.765625 C 193.332031 44.824219 193.457031 45.933594 193.261719 47.011719 C 193.117188 47.542969 192.417969 48.011719 192.796875 48.582031 C 193.28125 49.363281 193.097656 50.378906 192.425781 50.984375 C 192.710938 51.285156 193.042969 51.566406 193.226562 51.953125 C 193.675781 53.070312 194.574219 53.914062 195.152344 54.960938 C 195.152344 55.035156 195.152344 55.113281 195.152344 55.1875 L 213.222656 55.1875 C 213.246094 55.113281 213.265625 55.039062 213.289062 54.96875 Z M 213.289062 54.96875 "/>
<path style=" stroke:none;fill-rule:nonzero;fill:rgb(100%,100%,100%);fill-opacity:1;" d="M 243.375 42.867188 C 243.347656 43.320312 242.964844 43.65625 242.734375 44.027344 C 242.203125 44.132812 241.582031 44.109375 241.171875 44.511719 C 240.796875 44.914062 240.625 45.457031 240.316406 45.902344 C 239.433594 46.382812 238.378906 46.15625 237.445312 46.429688 C 236.957031 46.535156 236.472656 46.832031 235.96875 46.671875 C 235.148438 46.484375 234.277344 46.351562 233.464844 46.636719 C 231.976562 47.175781 230.4375 47.585938 228.992188 48.238281 C 229.421875 49.222656 230.472656 49.773438 230.835938 50.789062 C 230.847656 51.34375 230.867188 52.015625 230.402344 52.410156 C 229.46875 53.289062 228.410156 54.027344 227.53125 54.96875 C 227.472656 55.042969 227.414062 55.113281 227.351562 55.1875 L 261.761719 55.1875 C 261.851562 55.152344 261.941406 55.117188 262.027344 55.082031 L 262.167969 55.105469 L 262.078125 54.96875 C 262.847656 54.441406 263.527344 53.765625 264.367188 53.34375 C 265.203125 52.925781 266.257812 53.753906 267 53.070312 C 267.507812 52.625 268.15625 52.429688 268.753906 52.144531 C 269.21875 51.566406 269.488281 50.855469 269.882812 50.230469 C 270.257812 50.230469 270.632812 50.234375 271.007812 50.230469 C 271.507812 49.492188 272.414062 49.421875 273.152344 49.054688 C 272.105469 47.445312 270.765625 46.054688 269.605469 44.535156 C 269.640625 43.855469 269.84375 43.175781 269.726562 42.492188 C 269.695312 42.269531 269.625 42.058594 269.535156 41.859375 L 242.347656 41.859375 C 242.683594 42.203125 243.070312 42.496094 243.375 42.867188 Z M 243.375 42.867188 "/>
<path style=" stroke:none;fill-rule:nonzero;fill:rgb(100%,100%,100%);fill-opacity:1;" d="M 133.671875 41.859375 L 133.671875 55.1875 L 186.160156 55.1875 C 186.164062 55.113281 186.167969 55.039062 186.183594 54.964844 C 186.117188 53.929688 186.070312 52.847656 186.609375 51.914062 C 187.320312 50.835938 186.242188 49.601562 186.738281 48.472656 C 187.03125 48.097656 187.417969 47.808594 187.722656 47.441406 C 187.878906 46.742188 187.203125 46.101562 187.421875 45.398438 C 187.765625 44.226562 188.230469 43.082031 188.390625 41.859375 L 188.300781 41.859375 C 188.105469 42.085938 187.921875 42.316406 187.773438 42.578125 C 187.285156 43.480469 186.503906 44.199219 185.652344 44.753906 C 185.335938 44.984375 184.941406 44.875 184.585938 44.871094 C 184.617188 44.476562 184.539062 44.015625 184.84375 43.703125 C 185.304688 43.117188 185.835938 42.535156 186.15625 41.859375 Z M 133.671875 41.859375 "/>
<path style=" stroke:none;fill-rule:nonzero;fill:rgb(100%,100%,100%);fill-opacity:1;" d="M 167.730469 148.527344 C 167.90625 148.511719 168.082031 148.492188 168.257812 148.472656 L 167.15625 148.472656 C 167.347656 148.5 167.539062 148.519531 167.730469 148.527344 Z M 167.730469 148.527344 "/>
<path style=" stroke:none;fill-rule:nonzero;fill:rgb(100%,100%,100%);fill-opacity:1;" d="M 102.320312 150.507812 C 102.914062 151.160156 103.542969 151.914062 104.472656 152.046875 C 105.484375 152.339844 105.96875 151.128906 106.578125 150.546875 C 106.851562 149.824219 107.253906 149.160156 107.589844 148.464844 L 99.160156 148.464844 C 100.066406 149.328125 101.230469 149.917969 102.320312 150.507812 Z M 102.320312 150.507812 "/>
<path style=" stroke:none;fill-rule:nonzero;fill:rgb(100%,100%,100%);fill-opacity:1;" d="M 116.835938 149.214844 C 117.125 149.667969 117.457031 150.09375 117.765625 150.542969 C 118.574219 151.511719 120.027344 151.996094 120.308594 153.339844 C 120.472656 153.964844 120.929688 154.4375 121.316406 154.9375 C 121.941406 155.722656 122.242188 156.699219 122.683594 157.585938 C 123.410156 159.144531 124.675781 160.34375 125.578125 161.789062 L 140.714844 161.789062 C 141.035156 161.632812 141.339844 161.460938 141.511719 161.132812 C 142.089844 160.058594 142.640625 158.894531 143.59375 158.101562 C 143.976562 158.089844 144.359375 158.152344 144.746094 158.121094 C 145.195312 157.976562 145.421875 157.523438 145.691406 157.171875 C 145.054688 156.894531 144.078125 156.554688 144.414062 155.660156 C 145.246094 155.585938 146.125 155.453125 146.902344 155.855469 C 147.566406 155.699219 148.269531 155.535156 148.78125 155.054688 C 149.683594 154.238281 150.589844 153.429688 151.597656 152.742188 C 152.601562 152 153.820312 151.519531 154.625 150.519531 C 154.710938 150.320312 154.796875 150.117188 154.878906 149.917969 C 154.507812 149.886719 154.128906 149.894531 153.761719 149.816406 C 153.441406 149.523438 153.359375 149.074219 153.230469 148.679688 C 153.539062 148.613281 153.847656 148.539062 154.15625 148.460938 L 116.503906 148.460938 C 116.59375 148.722656 116.691406 148.980469 116.835938 149.214844 Z M 116.835938 149.214844 "/>
<path style=" stroke:none;fill-rule:nonzero;fill:rgb(100%,100%,100%);fill-opacity:1;" d="M 155.980469 149.816406 C 157.425781 149.566406 158.789062 148.976562 160.171875 148.472656 L 155.328125 148.472656 C 155.25 149.003906 155.480469 149.570312 155.980469 149.816406 Z M 155.980469 149.816406 "/>
<path style=" stroke:none;fill-rule:nonzero;fill:rgb(100%,100%,100%);fill-opacity:1;" d="M 174.625 148.613281 C 174.757812 148.578125 174.996094 148.511719 175.175781 148.464844 L 174.347656 148.464844 C 174.4375 148.515625 174.53125 148.570312 174.625 148.613281 Z M 174.625 148.613281 "/>
<path style=" stroke:none;fill-rule:nonzero;fill:rgb(100%,100%,100%);fill-opacity:1;" d="M 226.871094 150.539062 C 226.789062 151.933594 226.46875 153.296875 226.300781 154.679688 C 226.804688 154.78125 227.308594 154.871094 227.816406 154.964844 C 227.671875 154.660156 227.519531 154.355469 227.4375 154.03125 C 227.648438 153.476562 228.199219 153.320312 228.742188 153.367188 C 228.953125 153.933594 229.296875 154.5 229.21875 155.128906 C 228.898438 155.804688 227.710938 156.011719 227.9375 156.914062 C 228.433594 157.714844 229.261719 158.269531 229.652344 159.148438 C 229.9375 159.644531 230.046875 160.347656 230.652344 160.570312 C 231.328125 160.871094 231.941406 161.289062 232.476562 161.792969 L 244.285156 161.792969 C 244.296875 160.835938 244.261719 159.875 244.285156 158.925781 C 244.386719 157.605469 243.183594 156.820312 242.484375 155.878906 C 241.148438 154.136719 239.851562 152.351562 238.703125 150.480469 L 238.640625 150.484375 C 238.261719 149.820312 237.75 149.210938 237.554688 148.464844 L 226.792969 148.464844 C 226.921875 149.136719 226.859375 149.871094 226.871094 150.539062 Z M 226.871094 150.539062 "/>
<path style=" stroke:none;fill-rule:nonzero;fill:rgb(100%,100%,100%);fill-opacity:1;" d="M 184.355469 149.542969 C 185.84375 150.023438 187.304688 150.875 188.921875 150.496094 C 188.855469 150.363281 188.726562 150.09375 188.664062 149.960938 C 187.746094 149.304688 186.703125 148.878906 185.660156 148.464844 L 182.777344 148.464844 C 183.265625 148.882812 183.746094 149.316406 184.355469 149.542969 Z M 184.355469 149.542969 "/>
<path style=" stroke:none;fill-rule:nonzero;fill:rgb(100%,100%,100%);fill-opacity:1;" d="M 176.675781 150.550781 C 177.445312 151.125 178.796875 151.488281 179.421875 150.539062 C 179.652344 150.242188 179.882812 149.941406 180.179688 149.703125 C 180.453125 149.71875 180.722656 149.765625 180.996094 149.847656 C 181.078125 150.082031 181.164062 150.3125 181.253906 150.550781 C 181.800781 150.566406 182.351562 150.566406 182.902344 150.570312 C 183.015625 150.300781 183.128906 150.035156 183.246094 149.769531 C 182.820312 149.457031 182.355469 149.203125 181.957031 148.855469 C 181.859375 148.769531 181.820312 148.617188 181.820312 148.46875 L 175.355469 148.46875 C 175.925781 149.066406 176.4375 149.742188 176.675781 150.550781 Z M 176.675781 150.550781 "/>
<path style=" stroke:none;fill-rule:nonzero;fill:rgb(100%,100%,100%);fill-opacity:1;" d="M 43.761719 121.894531 C 44.664062 122.4375 45.5 123.132812 46.480469 123.515625 C 47.847656 124.699219 49.492188 125.484375 51.039062 126.402344 C 54.335938 128.234375 57.621094 130.082031 60.972656 131.808594 C 61.851562 132.363281 62.902344 132.003906 63.863281 132.152344 C 66.902344 132.519531 69.941406 132.867188 72.976562 133.253906 C 74.410156 133.410156 75.742188 134.09375 77.195312 134.070312 C 77.148438 133.40625 77.003906 132.738281 77.078125 132.074219 C 77.273438 131.597656 77.8125 131.414062 78.285156 131.351562 C 81.167969 130.90625 84.066406 131.609375 86.953125 131.324219 C 87.671875 131.722656 87.898438 132.625 88.414062 133.238281 C 88.933594 133.878906 89.464844 134.515625 90.007812 135.136719 L 231.113281 135.136719 C 230.917969 134.453125 230.742188 133.765625 230.667969 133.054688 C 230.78125 132.238281 231.140625 131.480469 231.226562 130.660156 C 231.449219 128.804688 231.914062 126.90625 233.035156 125.375 C 233.445312 124.84375 233.503906 124.15625 233.582031 123.515625 C 233.765625 122.929688 234.125 122.40625 234.683594 122.125 C 234.839844 122.03125 234.980469 121.925781 235.109375 121.808594 L 43.613281 121.808594 C 43.664062 121.839844 43.710938 121.871094 43.761719 121.894531 Z M 43.761719 121.894531 "/>
<path style=" stroke:none;fill-rule:nonzero;fill:rgb(69.803922%,12.941176%,20.392157%);fill-opacity:1;" d="M 275.375 10.96875 C 274.96875 10.480469 274.707031 9.894531 274.292969 9.417969 C 273.753906 9.136719 273.144531 9.054688 272.570312 8.914062 C 272.113281 9.453125 271.726562 10.125 271.035156 10.398438 C 270.34375 10.699219 269.628906 10.945312 268.917969 11.203125 C 269.097656 10.835938 269.273438 10.460938 269.421875 10.074219 C 268.941406 10.042969 268.457031 10.042969 267.976562 10.050781 C 268.015625 10.527344 268.398438 11.140625 267.910156 11.496094 C 267.234375 12.105469 266.703125 12.871094 266.660156 13.8125 C 266.625 14.277344 266.617188 14.742188 266.605469 15.207031 L 276.914062 15.207031 C 276.796875 14.742188 276.671875 14.277344 276.53125 13.816406 C 276.140625 12.867188 276.132812 11.730469 275.375 10.96875 Z M 275.375 10.96875 "/>
<path style=" stroke:none;fill-rule:nonzero;fill:rgb(69.803922%,12.941176%,20.392157%);fill-opacity:1;" d="M 188.402344 41.738281 C 188.367188 41.78125 188.332031 41.820312 188.296875 41.859375 L 188.386719 41.859375 C 188.394531 41.820312 188.398438 41.78125 188.402344 41.738281 Z M 188.402344 41.738281 "/>
<path style=" stroke:none;fill-rule:nonzero;fill:rgb(69.803922%,12.941176%,20.392157%);fill-opacity:1;" d="M 276.222656 29.003906 C 276.683594 29.003906 277.144531 29.027344 277.605469 28.953125 C 277.664062 28.816406 277.71875 28.675781 277.769531 28.535156 L 276.265625 28.535156 C 276.25 28.691406 276.234375 28.847656 276.222656 29.003906 Z M 276.222656 29.003906 "/>
<path style=" stroke:none;fill-rule:nonzero;fill:rgb(69.803922%,12.941176%,20.392157%);fill-opacity:1;" d="M 261.617188 29.222656 C 260.464844 29.382812 259.339844 29.675781 258.234375 30.027344 C 256.976562 30.425781 255.605469 30.175781 254.371094 30.65625 C 253.320312 31.03125 252.1875 31.148438 251.203125 31.695312 C 249.875 32.410156 248.261719 32.015625 246.933594 32.726562 C 246.210938 33 245.882812 33.757812 245.441406 34.339844 C 244.496094 35.628906 243.617188 36.964844 242.789062 38.332031 C 242.417969 39.070312 241.492188 39.046875 240.828125 39.347656 C 240.851562 39.535156 240.894531 39.910156 240.917969 40.097656 C 241.492188 40.074219 242.066406 40.042969 242.644531 40.019531 C 242.601562 40.183594 242.515625 40.515625 242.472656 40.679688 L 242.359375 40.679688 C 242.277344 40.988281 242.082031 41.292969 242.128906 41.625 C 242.199219 41.707031 242.269531 41.785156 242.347656 41.859375 L 269.53125 41.859375 C 269.347656 41.449219 269.070312 41.074219 268.835938 40.695312 C 269.082031 38.753906 270.453125 37.148438 270.585938 35.179688 C 270.613281 34.691406 271.0625 34.40625 271.363281 34.074219 C 271.820312 34.105469 272.375 34.308594 272.757812 33.929688 C 273.410156 33.367188 273.878906 32.621094 274.480469 32.011719 C 274.636719 32.007812 274.953125 32.007812 275.109375 32.003906 C 275.460938 30.96875 275.117188 29.855469 275.203125 28.792969 C 275.253906 28.695312 275.316406 28.609375 275.386719 28.535156 L 262.476562 28.535156 C 262.277344 28.867188 262.035156 29.148438 261.617188 29.222656 Z M 261.617188 29.222656 "/>
<path style=" stroke:none;fill-rule:nonzero;fill:rgb(69.803922%,12.941176%,20.392157%);fill-opacity:1;" d="M 207.453125 41.257812 C 207.03125 41.0625 206.640625 40.816406 206.335938 40.464844 C 206.257812 39.796875 206.695312 39.316406 207.148438 38.902344 C 206.300781 38.757812 205.9375 37.703125 205.03125 37.816406 C 204.316406 37.835938 203.597656 37.835938 202.90625 37.652344 C 202.757812 37.097656 202.589844 36.554688 202.390625 36.023438 C 201.945312 36.074219 201.511719 36.117188 201.074219 36.15625 C 200.988281 36.230469 200.824219 36.378906 200.738281 36.453125 C 200.457031 36.042969 200.15625 35.644531 199.75 35.351562 C 199.59375 35.691406 199.476562 36.042969 199.285156 36.363281 C 198.84375 36.679688 198.3125 36.839844 197.824219 37.0625 C 198.070312 37.28125 198.320312 37.5 198.570312 37.722656 C 198.542969 38.210938 198.515625 38.699219 198.480469 39.1875 C 198.011719 39.207031 197.542969 39.21875 197.082031 39.234375 C 197.132812 39.714844 197.167969 40.199219 197.195312 40.683594 C 197.132812 41.039062 197.066406 41.398438 197.003906 41.753906 C 196.230469 41.589844 196.34375 40.644531 195.785156 40.296875 C 195.535156 40.746094 195.367188 41.253906 194.988281 41.617188 C 194.90625 41.695312 194.832031 41.777344 194.761719 41.859375 L 207.464844 41.859375 C 207.460938 41.660156 207.453125 41.460938 207.449219 41.257812 Z M 207.453125 41.257812 "/>
<path style=" stroke:none;fill-rule:nonzero;fill:rgb(69.803922%,12.941176%,20.392157%);fill-opacity:1;" d="M 133.671875 28.53125 L 133.671875 41.859375 L 186.15625 41.859375 C 186.328125 41.5 186.441406 41.109375 186.445312 40.683594 L 186.496094 40.683594 C 187.027344 39.285156 187.199219 37.507812 188.609375 36.679688 C 188.855469 36.808594 189.109375 36.910156 189.375 37 C 189.660156 36.605469 189.882812 36.078125 190.421875 35.988281 C 190.792969 36.324219 190.902344 36.847656 191.113281 37.289062 C 191.253906 36.851562 191.359375 36.398438 191.582031 35.992188 C 191.929688 35.46875 192.503906 35.167969 193.03125 34.859375 C 193.722656 35.140625 194.464844 34.96875 195.183594 34.910156 C 195.113281 34.820312 194.972656 34.636719 194.898438 34.546875 C 195.125 34.0625 195.445312 33.628906 195.847656 33.277344 C 196.433594 33.453125 197.160156 33.457031 197.570312 33.984375 C 198.011719 34.527344 198.472656 35.050781 199.027344 35.484375 C 199.320312 34.984375 199.488281 34.425781 199.714844 33.894531 C 199.820312 33.535156 200.292969 33.726562 200.5625 33.710938 C 202.070312 33.929688 203.601562 33.921875 205.121094 33.957031 C 205.082031 33.644531 205.046875 33.335938 205.011719 33.027344 C 204.1875 33.042969 203.351562 33.003906 202.558594 32.785156 C 202.140625 32.570312 201.796875 32.242188 201.441406 31.945312 C 201.5625 31.40625 201.578125 30.851562 201.554688 30.304688 C 201.214844 30.65625 200.886719 31.019531 200.558594 31.378906 C 199.644531 31.429688 198.726562 31.421875 197.816406 31.367188 C 197.625 31.171875 197.433594 30.980469 197.246094 30.789062 C 197.328125 30.671875 197.492188 30.445312 197.574219 30.328125 C 197.535156 30.175781 197.457031 29.863281 197.417969 29.707031 C 197.0625 29.636719 196.707031 29.550781 196.347656 29.527344 C 195.972656 29.691406 195.683594 29.988281 195.367188 30.234375 C 194.515625 31.042969 193.179688 30.199219 192.257812 30.867188 C 191.292969 31.484375 190.386719 32.238281 189.789062 33.222656 C 189.390625 32.894531 188.996094 32.5625 188.605469 32.234375 C 187.890625 32.253906 187.175781 32.328125 186.46875 32.234375 C 185.628906 31.78125 185.363281 30.609375 184.386719 30.347656 C 183.289062 29.957031 182.382812 31.21875 181.28125 30.78125 C 181.113281 30.507812 181.019531 30.199219 180.910156 29.90625 C 180.503906 29.726562 179.941406 29.636719 179.941406 29.082031 C 180.464844 28.78125 181.066406 28.757812 181.652344 28.703125 C 181.714844 28.648438 181.769531 28.589844 181.828125 28.53125 L 180.109375 28.53125 C 178.957031 29.433594 177.832031 30.367188 176.636719 31.203125 C 176.152344 31.570312 175.503906 31.527344 174.992188 31.816406 C 174.640625 32.113281 174.445312 32.570312 174.070312 32.835938 C 173.21875 32.996094 172.351562 33.074219 171.492188 33.167969 C 170.980469 33.222656 170.570312 32.890625 170.183594 32.617188 C 170.449219 31.414062 172.074219 31.292969 172.234375 30.03125 C 171.660156 30.425781 171.164062 30.921875 170.605469 31.339844 C 170.339844 31.199219 170.074219 31.058594 169.808594 30.917969 C 168.921875 31.714844 167.75 32.035156 166.648438 32.417969 C 165.746094 32.707031 164.804688 33.011719 163.84375 32.863281 C 164.296875 32.210938 164.933594 31.707031 165.347656 31.023438 C 165.933594 30.125 166.605469 29.273438 167.375 28.53125 Z M 133.671875 28.53125 "/>
<path style=" stroke:none;fill-rule:nonzero;fill:rgb(69.803922%,12.941176%,20.392157%);fill-opacity:1;" d="M 224.796875 57.515625 C 223.324219 58.730469 221.421875 59.375 220.179688 60.875 C 219.410156 61.632812 218.679688 62.773438 217.457031 62.679688 C 216.789062 62.613281 216.101562 62.734375 215.550781 63.125 C 215.207031 63.71875 214.851562 64.332031 214.183594 64.601562 C 213.335938 63.996094 212.332031 63.640625 211.535156 62.953125 C 210.964844 62.429688 210.160156 62.683594 209.46875 62.664062 C 209.492188 62.144531 209.480469 61.621094 209.59375 61.113281 C 209.792969 60.617188 210.234375 60.246094 210.371094 59.722656 C 210.371094 59.199219 210.210938 58.660156 210.390625 58.148438 C 210.824219 57.214844 211.636719 56.511719 212.570312 56.105469 C 212.96875 55.949219 213.113281 55.566406 213.226562 55.1875 L 195.152344 55.1875 C 195.160156 56.46875 195.195312 57.753906 195.054688 59.027344 C 194.636719 61.191406 193.539062 63.277344 191.851562 64.699219 C 190.726562 64.707031 189.457031 64.980469 188.464844 64.28125 C 188.242188 63.726562 188.238281 63.113281 187.996094 62.566406 C 187.699219 62.035156 187.265625 61.5625 187.179688 60.9375 C 187.027344 59.867188 187.21875 58.789062 187.179688 57.71875 C 187.089844 56.769531 186.132812 56.148438 186.15625 55.1875 L 133.667969 55.1875 L 133.667969 68.515625 L 257.425781 68.515625 C 257.5 68.390625 257.570312 68.265625 257.644531 68.136719 L 257.785156 68.132812 C 258.089844 67.582031 258.476562 67.035156 258.472656 66.378906 C 258.535156 65.066406 259.007812 63.675781 258.492188 62.40625 C 257.941406 61.925781 257.070312 61.972656 256.582031 61.429688 C 256.347656 60.703125 256.96875 60.0625 257.378906 59.53125 C 258.050781 60.058594 258.894531 60.234375 259.726562 60.339844 C 259.59375 60.0625 259.46875 59.789062 259.34375 59.511719 C 259.921875 59.480469 260.585938 59.566406 261.058594 59.152344 C 262.625 57.617188 264.992188 57.5625 266.773438 56.378906 C 266.476562 56.128906 266.183594 55.882812 265.894531 55.628906 C 265.484375 55.125 264.761719 55.304688 264.199219 55.328125 C 264.148438 55.882812 264.238281 56.578125 263.609375 56.828125 C 261.960938 58.128906 259.882812 58.976562 257.757812 58.714844 C 257.800781 58.316406 257.757812 57.894531 257.9375 57.519531 C 258.316406 57.242188 258.851562 57.335938 259.269531 57.113281 C 259.789062 56.75 260.03125 56.125 260.503906 55.714844 C 260.898438 55.492188 261.328125 55.351562 261.753906 55.1875 L 227.34375 55.1875 C 226.605469 56.078125 225.683594 56.785156 224.792969 57.515625 Z M 224.796875 57.515625 "/>
<path style=" stroke:none;fill-rule:nonzero;fill:rgb(69.803922%,12.941176%,20.392157%);fill-opacity:1;" d="M 253.457031 82.4375 C 253.003906 82.722656 252.597656 83.171875 252.480469 83.707031 C 252.367188 84.191406 252.753906 84.578125 252.964844 84.972656 C 253.199219 84.65625 253.433594 84.335938 253.660156 84.011719 C 253.554688 83.777344 253.476562 83.539062 253.417969 83.292969 C 253.695312 82.960938 254.054688 82.703125 254.378906 82.414062 C 254.414062 82.222656 254.445312 82.03125 254.476562 81.839844 L 253.492188 81.839844 C 253.476562 82.042969 253.457031 82.246094 253.457031 82.4375 Z M 253.457031 82.4375 "/>
<path style=" stroke:none;fill-rule:nonzero;fill:rgb(69.803922%,12.941176%,20.392157%);fill-opacity:1;" d="M 133.671875 81.839844 L 133.671875 95.167969 L 13.207031 95.167969 L 256.46875 95.167969 C 256.679688 94.40625 256.820312 93.605469 256.523438 92.847656 C 256.183594 92.039062 255.679688 91.222656 254.847656 90.863281 C 254.703125 89.761719 254.78125 88.644531 254.640625 87.546875 C 254.3125 87.625 254.039062 87.835938 253.769531 88.011719 C 253.179688 87.613281 252.863281 86.964844 252.5 86.382812 C 251.867188 86.207031 250.996094 86.1875 250.703125 85.480469 C 250.660156 84.949219 250.710938 84.421875 250.699219 83.890625 C 250.257812 83.785156 249.824219 83.652344 249.402344 83.496094 C 249.742188 83.28125 250.269531 83.203125 250.390625 82.753906 C 250.472656 82.421875 250.449219 82.121094 250.351562 81.839844 L 133.664062 81.839844 Z M 133.671875 81.839844 "/>
<path style=" stroke:none;fill-rule:nonzero;fill:rgb(69.803922%,12.941176%,20.392157%);fill-opacity:1;" d="M 26.222656 110.304688 C 27.28125 111.449219 28.339844 112.785156 28.390625 114.421875 C 28.535156 115.433594 28 116.5625 28.65625 117.464844 C 28.960938 118.121094 29.769531 118.109375 30.378906 118.191406 C 33.738281 118.496094 37.113281 118.664062 40.46875 119.042969 C 41.808594 119.589844 42.40625 121.074219 43.617188 121.808594 L 235.109375 121.808594 C 235.996094 121.003906 236.308594 119.691406 237.242188 118.921875 C 238.625 117.996094 240.039062 117.101562 241.335938 116.050781 C 241.175781 115.5625 241.023438 115.070312 240.828125 114.59375 C 241.761719 113.128906 242.777344 111.714844 243.742188 110.273438 C 244.757812 109.847656 245.867188 109.867188 246.941406 109.710938 C 247.15625 109.417969 247.386719 109.132812 247.574219 108.816406 C 247.535156 108.699219 247.484375 108.589844 247.429688 108.480469 L 23.851562 108.480469 C 24.589844 109.152344 25.371094 109.777344 26.214844 110.304688 Z M 26.222656 110.304688 "/>
<path style=" stroke:none;fill-rule:nonzero;fill:rgb(69.803922%,12.941176%,20.392157%);fill-opacity:1;" d="M 92.121094 137.339844 C 93.21875 138.523438 94.464844 139.566406 95.523438 140.785156 C 96.058594 141.589844 96.527344 142.433594 97.011719 143.265625 C 97.753906 144.574219 97.519531 146.214844 98.34375 147.484375 C 98.578125 147.851562 98.855469 148.171875 99.164062 148.464844 L 107.589844 148.464844 C 107.664062 148.3125 107.734375 148.160156 107.800781 148.003906 C 108.039062 147.261719 108.914062 147.242188 109.535156 147.039062 C 110.417969 146.75 111.335938 147.054688 112.234375 147.082031 C 113.523438 147.226562 114.910156 146.949219 116.125 147.492188 C 116.292969 147.796875 116.390625 148.132812 116.503906 148.464844 L 154.15625 148.464844 C 154.585938 148.355469 155.011719 148.242188 155.433594 148.105469 C 155.382812 148.21875 155.347656 148.339844 155.328125 148.464844 L 160.167969 148.464844 C 160.621094 148.296875 161.070312 148.140625 161.53125 148.007812 C 162.417969 147.894531 163.292969 147.667969 164.183594 147.570312 C 165.144531 147.9375 166.128906 148.320312 167.152344 148.464844 L 168.25 148.464844 C 168.988281 148.375 169.71875 148.238281 170.457031 148.15625 C 170.167969 148 169.871094 147.835938 169.589844 147.671875 C 170.589844 147.191406 171.789062 147.433594 172.871094 147.359375 C 173.382812 147.699219 173.820312 148.144531 174.347656 148.464844 L 175.175781 148.464844 C 175.230469 148.449219 175.28125 148.433594 175.320312 148.425781 C 175.332031 148.4375 175.347656 148.449219 175.359375 148.464844 L 181.824219 148.464844 C 181.828125 148.179688 182.003906 147.898438 182.308594 148.074219 C 182.46875 148.199219 182.625 148.332031 182.777344 148.464844 L 185.664062 148.464844 C 185.410156 148.363281 185.160156 148.265625 184.910156 148.164062 C 184.480469 148.019531 184.414062 147.484375 184.632812 147.140625 C 185 146.058594 186.71875 146.367188 186.867188 145.132812 C 186.371094 144.992188 185.859375 144.917969 185.351562 144.871094 C 185.308594 145.050781 185.226562 145.40625 185.183594 145.582031 C 184.898438 145.636719 184.613281 145.6875 184.335938 145.738281 C 184.210938 144.953125 183.449219 144.738281 182.8125 144.496094 C 182.382812 144.863281 181.941406 145.460938 181.296875 145.285156 C 180.433594 145.125 179.953125 143.816406 180.710938 143.246094 C 181.21875 142.933594 181.722656 142.261719 182.382812 142.527344 C 183.550781 142.6875 184.390625 143.910156 185.652344 143.542969 C 186.515625 142.300781 188.183594 142.144531 189.507812 141.679688 C 190.734375 141.933594 191.996094 141.832031 193.195312 141.46875 C 193.609375 140.9375 193.804688 140.230469 194.414062 139.851562 C 194.742188 140.601562 194.921875 141.425781 195.390625 142.109375 C 195.671875 142.289062 196.128906 142.273438 196.328125 141.96875 C 196.699219 141.484375 197.003906 140.953125 197.367188 140.464844 C 197.644531 140.738281 197.90625 141.019531 198.179688 141.304688 C 198.734375 140.941406 198.816406 140.230469 199.25 139.78125 C 200.078125 139.550781 200.414062 140.417969 200.652344 141.03125 C 201.046875 141.277344 201.277344 140.707031 201.59375 140.554688 C 202.625 139.960938 203.914062 139.78125 205.042969 140.222656 C 205.28125 140.554688 205.449219 140.933594 205.691406 141.269531 C 206.542969 141.363281 207.25 140.769531 207.988281 140.433594 C 208.519531 140.496094 208.203125 141.207031 208.308594 141.574219 C 208.714844 142.136719 209.230469 142.601562 209.800781 143.003906 C 210.320312 143.300781 209.964844 144.457031 210.8125 144.246094 C 211.609375 144.308594 212.03125 143.449219 212.78125 143.367188 C 213.234375 143.261719 213.773438 143.222656 214.074219 142.8125 C 214.628906 142.097656 215.039062 141.28125 215.515625 140.515625 C 215.660156 140.308594 215.8125 139.96875 216.132812 140.042969 C 217.34375 140.15625 218.828125 140.328125 219.53125 141.464844 C 220.390625 143.03125 221.976562 143.953125 223.335938 145.035156 C 224.257812 145.804688 225.476562 146.21875 226.195312 147.230469 C 226.53125 147.589844 226.703125 148.011719 226.789062 148.464844 L 237.550781 148.464844 C 237.550781 148.460938 237.546875 148.460938 237.546875 148.457031 C 237.484375 148.167969 237.480469 147.578125 237.894531 147.589844 C 238.328125 147.71875 238.734375 147.925781 239.167969 148.078125 C 238.394531 147.007812 237.695312 145.847656 236.648438 145.019531 C 235.433594 143.980469 234.554688 142.632812 233.695312 141.300781 C 232.941406 140.042969 232.042969 138.828125 231.722656 137.371094 C 231.5625 136.617188 231.328125 135.878906 231.117188 135.136719 L 90.011719 135.136719 C 90.683594 135.902344 91.378906 136.648438 92.125 137.339844 Z M 92.121094 137.339844 "/>
<path style=" stroke:none;fill-rule:nonzero;fill:rgb(69.803922%,12.941176%,20.392157%);fill-opacity:1;" d="M 234.210938 164.351562 L 234.242188 164.351562 C 234.96875 166.136719 237.335938 165.941406 238.453125 167.347656 C 238.378906 167.515625 238.242188 167.855469 238.167969 168.023438 C 238.648438 168.773438 239.078125 169.570312 239.683594 170.226562 C 240.359375 170.398438 241.109375 170.324219 241.777344 170.15625 C 242.363281 169.710938 242.910156 169.210938 243.46875 168.726562 C 243.503906 168.347656 243.535156 167.964844 243.648438 167.601562 C 244.109375 166.546875 243.394531 165.363281 244.039062 164.339844 C 244.21875 163.5 244.273438 162.644531 244.285156 161.789062 L 232.476562 161.789062 C 233.234375 162.5 233.832031 163.378906 234.210938 164.351562 Z M 234.210938 164.351562 "/>
<path style=" stroke:none;fill-rule:nonzero;fill:rgb(69.803922%,12.941176%,20.392157%);fill-opacity:1;" d="M 125.828125 162.230469 C 126.253906 162.984375 126.550781 163.808594 126.777344 164.648438 L 126.859375 164.519531 C 127.132812 165.375 127.464844 166.222656 127.960938 166.980469 C 128.671875 168.078125 129.015625 169.355469 129.53125 170.546875 C 130.191406 171.523438 131.417969 171.703125 132.472656 171.96875 C 133.035156 172.046875 133 172.816406 133.5 172.980469 C 134.855469 173.410156 136.3125 173.167969 137.679688 173.523438 C 138.382812 173.703125 138.796875 174.410156 139.503906 174.582031 C 139.769531 174.65625 140.152344 174.734375 140.300781 174.425781 C 140.539062 173.820312 140.367188 173.148438 140.289062 172.527344 C 140.148438 171.589844 139.292969 170.980469 139.066406 170.082031 C 139.148438 169.265625 139.285156 168.449219 139.199219 167.628906 C 139.214844 166.519531 138.402344 165.390625 139.140625 164.359375 C 139.570312 163.710938 139.695312 162.933594 139.964844 162.21875 C 140.183594 162.039062 140.449219 161.925781 140.707031 161.800781 L 125.574219 161.800781 C 125.660156 161.941406 125.746094 162.082031 125.828125 162.230469 Z M 125.828125 162.230469 "/>
</g>
</svg>
