<?xml version="1.0" standalone="no"?>
<!DOCTYPE svg PUBLIC "-//W3C//DTD SVG 20010904//EN"
 "http://www.w3.org/TR/2001/REC-SVG-20010904/DTD/svg10.dtd">
<svg version="1.0" xmlns="http://www.w3.org/2000/svg"
 width="640.000000pt" height="427.000000pt" viewBox="0 0 640.000000 427.000000"
 preserveAspectRatio="xMidYMid meet">

<g transform="translate(0.000000,427.000000) scale(0.100000,-0.100000)"
fill="#000000" stroke="none">
<path d="M0 2135 l0 -2135 1173 1 c1149 0 1171 1 1132 19 -22 10 -33 19 -25
19 13 1 13 2 0 11 -9 5 -17 5 -20 -1 -4 -5 -40 1 -89 17 -79 25 -82 27 -77 52
46 244 80 420 92 472 8 36 17 76 19 90 2 14 9 53 15 87 15 75 8 106 -10 43 -6
-25 -19 -54 -28 -65 -16 -19 -16 -19 2 -5 17 14 18 13 13 -5 -10 -34 -34 -150
-82 -385 -47 -232 -62 -290 -73 -290 -3 0 -52 14 -107 31 l-102 31 -104 116
c-57 64 -182 201 -278 305 l-174 189 39 35 39 34 -43 -27 -43 -27 -25 24 c-14
13 -44 45 -65 71 l-39 46 30 79 c18 43 52 123 76 178 l45 100 117 76 c64 42
130 80 146 84 20 4 26 9 18 14 -10 6 -9 11 2 21 9 7 13 17 9 23 -4 6 0 8 10 4
8 -3 21 1 27 9 7 8 9 14 5 14 -4 0 -1 8 6 17 8 9 -10 -1 -38 -21 -29 -21 -55
-42 -59 -47 -3 -5 -47 -9 -99 -9 l-94 0 -10 38 c-44 163 -183 864 -174 872 4
4 29 14 55 23 43 14 47 14 51 -1 4 -13 5 -14 6 -2 1 11 60 31 219 72 119 32
251 65 292 73 41 8 134 31 205 50 72 20 195 51 274 71 79 19 302 82 495 138
193 57 433 127 533 157 100 29 181 55 179 57 -2 2 -32 -4 -66 -14 -71 -20 -80
-15 -80 48 0 33 3 38 36 48 43 15 40 23 -4 11 -18 -5 -32 -9 -33 -8 0 1 -10
76 -23 166 l-22 163 20 8 c20 9 20 9 -1 9 -19 1 -23 7 -23 32 0 18 -7 76 -16
131 -9 55 -13 102 -10 105 12 12 330 103 337 96 6 -7 44 -129 62 -198 3 -11
17 -60 32 -110 17 -59 24 -101 20 -122 -4 -24 -2 -33 8 -33 8 0 24 -41 45
-112 28 -101 30 -114 16 -125 -14 -10 -13 -12 7 -15 19 -2 26 -17 47 -92 20
-71 27 -84 33 -67 5 11 13 21 19 21 6 0 20 19 30 43 14 31 25 43 42 44 21 2
26 -6 47 -80 36 -123 35 -121 23 -113 -6 3 -13 -3 -17 -13 -4 -12 -12 -18 -21
-14 -8 3 -14 -1 -14 -11 0 -24 25 -19 38 7 6 12 11 16 11 9 1 -7 5 -11 10 -8
12 8 23 -38 16 -71 -4 -20 -3 -23 3 -9 7 15 10 12 21 -22 8 -22 10 -46 6 -52
-5 -8 -4 -11 2 -7 10 6 23 -22 23 -50 0 -20 -18 -15 -25 6 -4 13 -12 17 -25
14 -11 -3 -20 0 -20 6 0 6 -9 11 -21 11 -14 0 -19 -5 -16 -14 4 -9 0 -12 -12
-9 -26 7 -33 -42 -16 -98 15 -48 20 -33 6 17 -5 20 -5 37 1 45 8 11 9 11 5 -3
-7 -20 16 -31 32 -15 8 8 11 8 11 -1 0 -7 10 -17 23 -22 17 -7 18 -9 5 -9 -10
-1 -18 -5 -18 -11 0 -5 -6 -9 -12 -7 -8 1 -12 -6 -10 -18 2 -11 4 -32 5 -47 2
-20 5 -24 15 -16 16 14 28 2 15 -14 -18 -22 -2 -104 18 -92 5 3 9 0 9 -6 0 -6
3 -9 8 -7 4 3 16 1 27 -3 13 -5 26 -2 37 8 16 14 18 13 18 -1 0 -10 -7 -17
-16 -17 -13 0 -15 -7 -10 -30 4 -23 2 -30 -10 -30 -11 0 -13 -6 -9 -19 8 -26
-32 -51 -46 -30 -5 8 -9 20 -9 28 0 8 -2 12 -5 9 -3 -3 13 -71 36 -152 23 -80
44 -144 46 -142 4 4 -11 70 -24 102 -3 8 1 14 11 14 9 0 16 -4 16 -10 0 -5 8
-10 18 -10 14 0 15 2 2 10 -8 5 -10 10 -5 10 6 0 5 4 -2 8 -8 5 -9 12 -2 22 8
13 10 13 18 1 5 -8 7 -20 4 -27 -2 -6 0 -15 6 -19 6 -3 11 -13 11 -22 0 -9 7
-21 17 -28 11 -8 14 -18 8 -31 -4 -10 -7 -27 -6 -36 1 -10 -3 -18 -8 -18 -6 0
-11 10 -12 23 -1 18 -2 17 -10 -8 -10 -34 -4 -60 11 -50 5 3 10 1 10 -5 0 -7
7 -10 15 -6 8 3 15 1 15 -5 0 -6 7 -9 15 -5 9 3 15 0 15 -8 0 -8 3 -16 8 -19
4 -2 2 -3 -4 -1 -18 4 -39 -14 -39 -33 0 -10 -8 -19 -19 -21 -15 -3 -17 1 -12
30 3 18 3 26 -1 18 -4 -10 -15 8 -30 50 -13 36 -21 56 -19 45 5 -29 40 -159
43 -164 1 -2 17 -4 35 -3 18 1 71 -3 117 -8 63 -7 87 -14 101 -30 9 -11 29
-20 44 -20 14 0 26 -5 26 -11 0 -7 -15 -9 -42 -5 l-43 5 35 -11 c19 -7 37 -15
40 -18 6 -8 202 -70 220 -70 7 0 19 8 27 18 8 10 13 11 11 4 -2 -8 -46 -57
-98 -110 l-95 -96 88 78 88 78 105 -26 c57 -14 128 -35 157 -46 28 -11 63 -20
76 -20 l25 0 -30 -31 c-31 -34 -577 -534 -608 -559 -12 -9 -17 -10 -12 -3 9
16 -5 38 -24 38 -8 0 -16 6 -16 13 -1 6 -3 15 -4 20 -1 4 -2 11 -1 15 1 5 -3
6 -9 2 -8 -5 -7 -11 1 -21 11 -13 5 -15 -41 -13 -45 2 -56 -1 -71 -20 -20 -24
-27 -107 -9 -96 15 9 12 -8 -6 -33 -8 -12 -11 -22 -6 -22 5 0 12 -11 14 -24 4
-19 -3 -33 -28 -57 -19 -18 -36 -30 -40 -27 -3 4 5 17 18 30 12 12 21 32 20
43 -4 30 -24 65 -34 59 -4 -3 -9 14 -10 38 -1 24 -4 -11 -8 -76 l-5 -119 -510
-133 c-280 -73 -515 -133 -520 -134 -6 0 -21 42 -33 92 -28 116 -83 291 -89
284 -2 -2 4 -35 15 -73 29 -99 30 -109 21 -124 -7 -12 -9 -11 -10 1 0 10 -3 8
-9 -5 -6 -14 -9 1 -9 48 -1 50 -5 69 -16 73 -8 4 -15 16 -16 28 0 20 -1 20 -8
1 -6 -16 -9 -14 -14 15 -4 19 -3 36 2 40 6 3 66 21 135 39 69 19 124 36 122
38 -2 2 -50 -8 -106 -22 -57 -14 -106 -22 -110 -18 -4 4 -15 36 -25 71 -10 34
-20 60 -22 58 -3 -2 5 -34 16 -71 12 -37 21 -69 21 -71 0 -2 -11 -4 -25 -4
-24 0 -26 3 -20 38 3 23 2 30 -3 18 -6 -14 -12 0 -22 55 -7 41 -15 69 -17 63
-2 -6 21 -136 50 -290 30 -153 55 -290 55 -304 1 -14 12 -83 25 -155 l23 -130
563 -3 562 -2 -3 110 c-2 60 -1 110 2 110 6 0 264 -84 269 -88 3 -1 -25 -30
-62 -64 -38 -33 -66 -63 -63 -65 3 -3 31 18 63 47 53 47 61 51 95 46 59 -10
86 -26 93 -57 9 -40 26 -48 18 -8 -5 25 -3 31 8 27 8 -3 38 -13 67 -23 28 -11
52 -22 52 -27 0 -4 371 -8 825 -8 l825 0 0 2135 0 2135 -3200 0 -3200 0 0
-2135z m2500 2081 c0 -3 -4 -8 -10 -11 -5 -3 -10 -1 -10 4 0 6 5 11 10 11 6 0
10 -2 10 -4z m171 -66 c219 -94 282 -128 274 -148 -3 -9 -63 -165 -131 -347
-161 -426 -159 -421 -175 -417 -55 11 -307 108 -322 123 -10 10 -23 19 -30 19
-8 0 -7 -4 3 -11 13 -10 13 -10 0 -6 -92 27 -122 42 -149 73 -17 19 -41 35
-53 37 -13 1 -40 19 -60 40 -22 23 -35 31 -34 21 1 -9 13 -24 27 -34 13 -10
21 -21 18 -24 -7 -7 -81 32 -95 50 -6 8 -25 14 -41 14 -17 0 -36 7 -43 15 -8
10 -16 12 -19 6 -4 -5 -11 -7 -18 -3 -15 10 2 52 22 52 9 0 13 5 10 10 -3 6 1
10 9 10 9 0 16 5 16 10 0 6 7 10 15 10 8 0 15 7 15 16 0 8 5 12 10 9 6 -3 22
7 36 24 14 17 31 31 38 31 7 0 18 12 25 26 8 19 17 25 32 21 17 -5 18 -3 7 10
-10 13 -10 17 0 20 6 3 9 10 6 15 -4 7 -2 8 4 4 6 -3 16 3 22 14 6 11 15 18
20 15 6 -3 7 1 4 9 -4 11 0 14 15 11 13 -2 18 1 15 9 -3 7 18 37 45 66 28 30
51 50 51 45 0 -4 9 0 20 10 17 15 22 16 37 4 15 -13 16 -12 10 9 -4 16 1 30
16 45 12 12 21 25 19 30 -1 4 3 6 10 5 7 -2 12 4 13 12 0 9 8 14 18 12 9 -2
17 2 17 8 0 6 4 9 8 6 4 -2 14 9 21 25 11 26 15 28 29 17 13 -11 15 -10 9 5
-4 11 -3 16 3 12 5 -3 18 -1 27 4 10 6 21 11 25 11 4 0 71 -27 149 -60z m3199
35 c18 -19 20 -25 8 -25 -8 0 -20 11 -26 25 -6 14 -10 25 -9 25 2 0 14 -11 27
-25z m-2393 -37 c-3 -8 -6 -5 -6 6 -1 11 2 17 5 13 3 -3 4 -12 1 -19z m-1683
-24 c7 -19 2 -18 -19 6 -16 17 -16 20 -3 15 9 -4 19 -13 22 -21z m68 -8 c4 3
9 -5 13 -18 4 -13 15 -32 24 -43 24 -29 43 -66 38 -72 -3 -3 -11 6 -18 18 -6
13 -35 53 -62 89 -28 36 -40 55 -26 42 14 -12 28 -20 31 -16z m108 19 c7 -9 8
-15 2 -15 -5 0 -12 7 -16 15 -3 8 -4 15 -2 15 2 0 9 -7 16 -15z m1485 -32 c-3
-16 -11 -32 -17 -38 -8 -7 -9 -2 -4 15 3 14 6 31 6 38 0 6 5 12 11 12 7 0 9
-10 4 -27z m32 5 c-3 -8 -6 -5 -6 6 -1 11 2 17 5 13 3 -3 4 -12 1 -19z m-107
-19 c-7 -11 -14 -18 -17 -15 -8 8 5 36 17 36 7 0 7 -6 0 -21z m2594 -20 c-11
-18 -29 -8 -29 15 0 23 1 23 17 9 10 -9 15 -20 12 -24z m-4107 -62 c-3 -7 7
-25 22 -42 l26 -30 -28 25 c-24 21 -77 102 -77 118 0 3 14 -9 31 -27 16 -18
28 -38 26 -44z m331 28 c-3 -3 -9 2 -12 12 -6 14 -5 15 5 6 7 -7 10 -15 7 -18z
m1105 4 c4 -15 11 -20 21 -16 12 5 16 -1 17 -21 1 -17 3 -20 6 -9 2 9 8 17 13
17 5 0 16 3 26 7 13 5 16 3 11 -10 -10 -25 10 -30 26 -6 9 11 18 16 21 10 4
-5 2 -12 -4 -16 -5 -3 -10 -11 -10 -17 0 -7 9 -2 21 10 11 12 17 26 14 31 -3
5 -1 12 4 15 5 3 11 -3 14 -14 3 -11 0 -23 -5 -26 -7 -4 -4 -10 6 -16 19 -10
24 -108 5 -108 -6 0 -17 -7 -25 -15 -14 -13 -13 -15 3 -15 28 0 66 72 59 113
-3 17 6 -1 19 -42 37 -113 37 -112 -15 -127 -34 -10 -46 -10 -52 -1 -5 9 -8 8
-8 -3 0 -22 -219 -87 -230 -69 -5 6 -11 50 -14 98 -4 47 -9 110 -13 140 -4 39
-2 52 6 47 6 -4 11 -1 11 9 0 9 5 13 10 10 6 -3 10 -1 10 5 0 6 5 8 10 5 6 -3
10 3 10 14 0 28 26 27 33 0z m204 -1 c-3 -8 -6 -5 -6 6 -1 11 2 17 5 13 3 -3
4 -12 1 -19z m-1793 -39 c6 -8 28 -25 49 -38 20 -12 35 -27 31 -32 -3 -5 0 -9
5 -9 6 0 10 -3 9 -7 -1 -5 10 -21 26 -38 65 -67 103 -135 78 -135 -14 0 -58
43 -65 63 -4 10 -11 16 -16 13 -13 -8 -140 117 -134 132 4 10 8 9 17 -4 12
-15 13 -15 13 0 0 9 -3 16 -7 16 -3 0 -16 13 -28 29 -17 24 -18 29 -5 27 9 -2
21 -9 27 -17z m1439 8 c3 -7 3 -26 0 -42 -4 -19 -2 -26 6 -21 6 4 12 15 12 24
2 17 10 -28 28 -153 5 -38 19 -133 30 -210 26 -178 27 -218 4 -213 -10 2 -22
20 -29 43 -7 22 -13 34 -13 27 -1 -7 -5 -10 -11 -7 -9 6 -11 -5 -14 -62 -1
-20 -14 -33 -33 -33 -6 0 -17 17 -23 38 -6 20 -14 44 -17 52 -4 8 -5 19 -4 23
1 5 -3 6 -9 2 -5 -3 -10 -4 -10 -1 0 2 -3 13 -6 23 -5 15 -4 15 5 3 9 -13 11
-13 11 1 0 8 -5 20 -11 26 -5 5 -12 28 -15 49 -2 21 -9 55 -14 74 -5 19 -6 37
-2 40 12 7 23 40 14 40 -5 0 -13 -5 -20 -12 -9 -9 -12 -8 -12 7 0 14 -3 16 -8
8 -5 -8 -8 3 -8 25 0 20 4 40 9 44 6 3 10 20 10 37 0 17 4 31 9 31 13 0 25
-39 59 -184 63 -276 57 -257 71 -232 7 12 7 21 0 25 -5 3 -12 27 -15 54 -3 26
-9 53 -13 59 -4 7 -11 30 -15 53 -4 22 -19 85 -33 140 -30 115 -31 135 -12
135 16 0 35 -60 57 -175 8 -38 15 -62 17 -53 2 10 -6 64 -17 120 -11 57 -22
120 -26 141 -3 21 -9 45 -12 53 -4 10 3 14 25 14 16 0 32 -6 35 -13z m-1308
-77 c16 -20 16 -22 2 -11 -10 8 -32 33 -49 55 -30 40 -30 41 -2 11 16 -17 38
-42 49 -55z m65 55 c7 -8 8 -15 2 -15 -5 0 -15 7 -22 15 -7 8 -8 15 -2 15 5 0
15 -7 22 -15z m-35 -35 c10 -11 16 -20 13 -20 -3 0 -13 9 -23 20 -10 11 -16
20 -13 20 3 0 13 -9 23 -20z m1107 -32 c-7 -7 -12 -8 -12 -2 0 6 3 14 7 17 3
4 9 5 12 2 2 -3 -1 -11 -7 -17z m21 -35 c-3 -18 -9 -33 -14 -33 -13 0 -11 44
3 58 15 15 17 13 11 -25z m-1229 -61 c10 -12 15 -26 11 -31 -3 -6 1 -11 9 -11
9 0 16 -5 16 -10 0 -17 -42 9 -71 44 -44 51 -11 58 35 8z m1115 -112 c1 -13 0
-13 -9 0 -6 10 -8 4 -7 -22 1 -20 5 -34 8 -32 4 2 9 -3 12 -11 4 -9 1 -12 -9
-8 -26 10 -35 50 -21 94 11 35 13 37 19 17 3 -13 6 -30 7 -38z m25 10 l7 -25
-15 25 c-9 14 -15 32 -15 40 0 13 1 13 8 0 5 -8 12 -26 15 -40z m1140 41 c3
-5 -1 -14 -8 -20 -12 -10 -13 -8 -9 8 6 23 9 25 17 12z m-1103 -26 c5 4 12 -1
15 -10 6 -13 9 -14 16 -3 6 8 7 4 3 -12 -5 -23 36 -165 46 -156 2 2 4 -5 5
-17 0 -12 15 -59 31 -104 25 -66 28 -83 16 -87 -7 -3 -16 0 -18 7 -2 6 -16 43
-30 81 -13 37 -22 72 -19 77 3 5 -4 21 -15 34 -10 14 -27 51 -36 83 -10 31
-24 71 -31 89 -16 36 -18 56 -3 30 6 -9 14 -15 20 -12z m1123 -10 c-6 -16 -24
-21 -24 -7 0 11 11 22 21 22 5 0 6 -7 3 -15z m-2233 -32 c13 -16 12 -17 -3 -4
-10 7 -18 15 -18 17 0 8 8 3 21 -13z m49 13 c0 -3 -4 -8 -10 -11 -5 -3 -10 -1
-10 4 0 6 5 11 10 11 6 0 10 -2 10 -4z m2261 -53 c13 -16 12 -17 -3 -4 -17 13
-22 21 -14 21 2 0 10 -8 17 -17z m340 -36 c-5 -12 -17 -36 -27 -53 -15 -27
-16 -36 -6 -59 9 -19 17 -25 31 -20 11 3 26 -1 35 -10 9 -9 16 -13 16 -9 0 3
6 1 14 -5 8 -7 14 -28 13 -47 -1 -19 3 -38 8 -42 6 -4 20 -25 32 -48 20 -37
20 -41 5 -53 -15 -11 -15 -11 2 -6 13 4 17 1 13 -9 -3 -8 -2 -16 2 -18 4 -2
11 -15 15 -30 9 -37 -20 -39 -34 -3 -5 14 -14 24 -18 23 -5 -2 -40 30 -77 70
-37 39 -62 72 -55 72 6 0 8 5 4 12 -6 9 -9 9 -12 0 -2 -7 -8 -10 -12 -7 -5 3
-7 13 -4 23 4 12 3 13 -3 4 -7 -9 -23 2 -60 43 -50 54 -56 67 -40 92 6 9 3 11
-10 6 -14 -5 -16 -3 -6 7 6 7 24 13 39 13 31 0 49 14 57 43 3 12 5 7 6 -13 1
-35 21 -47 21 -13 0 11 5 20 11 20 6 0 9 6 7 12 -6 16 14 37 29 31 8 -3 9 -12
4 -26z m-461 -3 c0 -16 -23 -44 -36 -44 -3 0 -1 6 5 13 6 8 8 17 5 20 -4 3 -4
13 0 22 7 19 26 11 26 -11z m-1075 -64 c9 -21 13 -25 9 -10 -15 63 -13 72 5
30 23 -52 26 -74 9 -64 -11 7 -10 -3 7 -51 6 -18 6 -18 -5 -2 -12 18 -61 155
-59 166 0 6 4 -1 34 -69z m82 48 c-3 -8 -6 -5 -6 6 -1 11 2 17 5 13 3 -3 4
-12 1 -19z m1093 -2 c0 -6 -10 -22 -21 -36 -11 -14 -18 -19 -14 -12 5 9 -1 15
-14 19 -23 6 -23 6 -15 26 6 18 64 20 64 3z m-1235 -74 c-5 -5 -35 61 -35 75
1 4 10 -10 20 -31 11 -22 18 -42 15 -44z m23 53 c-3 -3 -9 2 -12 12 -6 14 -5
15 5 6 7 -7 10 -15 7 -18z m22 -53 c0 -7 -4 -10 -10 -7 -5 3 -10 16 -10 28 0
18 2 19 10 7 5 -8 10 -21 10 -28z m1580 -252 c291 -305 439 -464 435 -469 -3
-2 -14 7 -26 20 -15 17 -19 19 -15 7 3 -10 1 -18 -4 -18 -6 0 -10 4 -10 10 0
5 -7 7 -15 4 -8 -3 -38 -1 -65 6 -28 7 -53 10 -56 8 -2 -3 46 -18 108 -34
l112 -29 68 -235 c91 -316 142 -509 136 -515 -6 -6 -309 -92 -355 -101 -33 -6
-36 -5 -30 15 3 11 2 21 -3 21 -4 0 -13 21 -20 48 -16 61 -39 121 -39 102 -1
-10 -4 -11 -12 -3 -6 6 -12 40 -14 75 -1 35 -7 73 -14 83 -11 19 -12 18 -7 -5
4 -14 9 -35 12 -47 4 -14 2 -23 -5 -23 -15 0 -14 -33 2 -49 10 -11 10 -13 0
-7 -9 5 -13 -2 -13 -25 l0 -32 -20 23 c-11 13 -20 30 -20 39 -1 14 -2 14 -14
-1 -14 -19 -28 -14 -20 7 3 7 -1 15 -9 18 -10 4 -13 -1 -9 -18 3 -19 -1 -25
-19 -29 -51 -10 -64 -4 -65 31 0 18 3 33 8 33 5 0 6 5 2 12 -9 14 -34 -39 -28
-57 2 -5 -7 -11 -20 -11 -18 -1 -26 5 -31 23 -3 14 -4 28 0 31 3 3 5 0 5 -7 0
-7 5 -9 10 -6 14 9 12 42 -2 48 -10 3 -7 12 7 33 23 32 22 66 -1 57 -9 -3 -14
2 -14 16 0 14 5 19 15 15 18 -7 20 18 5 46 -7 13 -6 21 2 26 7 4 10 4 6 -1 -4
-4 0 -14 8 -22 8 -9 14 -27 12 -42 -2 -20 2 -27 18 -29 16 -2 25 5 35 27 9 20
16 26 21 18 5 -9 10 -9 18 -1 9 9 4 13 -15 18 -18 5 -25 12 -21 21 3 8 1 17
-4 20 -5 3 -6 13 -3 22 4 11 2 14 -8 11 -8 -3 -13 -10 -12 -15 1 -5 -7 -10
-18 -10 -10 -1 -19 3 -19 8 0 6 -4 8 -8 5 -15 -9 -29 9 -35 46 -5 36 -5 37 19
26 13 -6 24 -15 24 -20 0 -5 5 -6 11 -2 8 4 8 9 0 17 -6 6 -11 22 -11 36 0 23
1 24 20 6 19 -17 20 -17 20 0 0 10 -8 27 -17 38 -17 19 -17 19 7 12 l25 -7
-22 21 c-26 24 -35 27 -27 7 3 -8 1 -17 -5 -21 -6 -3 -11 -1 -11 5 0 6 -4 9
-9 6 -15 -10 -40 19 -42 49 -4 54 1 75 16 75 8 0 15 7 15 15 0 8 5 15 10 15 6
0 10 9 10 20 0 11 5 20 10 20 6 0 10 8 10 18 0 9 4 23 9 31 14 22 85 -211 77
-252 -4 -20 -3 -27 3 -18 6 10 13 1 25 -30 14 -40 15 -41 10 -9 -4 19 -22 88
-40 153 -36 125 -40 149 -25 145 5 -2 16 5 23 14 12 16 17 17 71 2 33 -8 66
-14 75 -12 9 2 -27 14 -81 27 -54 13 -100 27 -103 32 -2 4 -10 6 -17 3 -8 -3
-48 34 -92 83 -44 48 -116 126 -161 173 -44 47 -97 103 -116 124 l-35 39 30
56 c33 62 72 113 80 105 6 -6 24 26 23 41 -1 6 -5 17 -10 25 -4 8 16 -10 45
-40 29 -30 132 -138 229 -240z m283 283 c-7 -2 -19 -2 -25 0 -7 3 -2 5 12 5
14 0 19 -2 13 -5z m-1986 -90 c-12 -11 -38 47 -32 68 7 20 9 18 22 -20 8 -24
12 -45 10 -48z m43 52 c0 -5 -5 -3 -10 5 -5 8 -10 20 -10 25 0 6 5 3 10 -5 5
-8 10 -19 10 -25z m1451 8 c13 -16 12 -17 -3 -4 -17 13 -22 21 -14 21 2 0 10
-8 17 -17z m503 -9 c3 -8 2 -12 -4 -9 -6 3 -10 10 -10 16 0 14 7 11 14 -7z
m-2041 -48 c3 -8 0 -17 -7 -19 -10 -4 -12 1 -9 14 6 23 9 24 16 5z m-953 -25
c0 8 7 6 19 -5 11 -10 24 -15 29 -12 5 3 9 -1 9 -9 0 -19 -6 -19 -29 2 -11 10
-18 12 -18 4 0 -18 60 -50 89 -45 26 3 26 3 3 -8 -24 -12 -60 1 -94 35 -10 9
-22 17 -27 17 -5 0 -17 12 -26 27 l-18 26 32 -22 c19 -14 31 -18 31 -10z
m1199 -11 c0 -10 -3 -8 -9 5 -12 27 -12 43 0 25 5 -8 9 -22 9 -30z m1021 33
c0 -5 -5 -15 -10 -23 -8 -12 -10 -11 -10 8 0 12 5 22 10 22 6 0 10 -3 10 -7z
m654 -18 c-4 -9 0 -15 10 -15 9 0 16 -5 16 -11 0 -5 4 -8 9 -5 5 3 11 -3 14
-13 4 -16 0 -19 -27 -19 -17 0 -37 5 -43 11 -7 5 -13 6 -13 3 0 -4 -9 -2 -20
4 -38 20 -24 45 23 41 9 -1 17 3 17 8 0 6 4 11 10 11 5 0 7 -7 4 -15z m-594
-133 c0 -7 4 -11 9 -8 8 5 238 -229 354 -359 l36 -41 -142 32 c-78 17 -160 34
-182 37 -38 6 -38 5 -9 -5 26 -8 33 -18 42 -56 12 -55 -1 -86 -33 -76 -50 16
-50 16 -32 1 17 -14 24 -33 8 -23 -13 8 -6 -65 10 -100 8 -17 20 -29 27 -27 6
3 12 0 12 -5 0 -13 33 -10 42 3 4 6 8 0 8 -13 0 -20 -3 -21 -20 -12 -17 9 -22
7 -30 -15 -6 -15 -10 -29 -10 -31 0 -3 -6 -12 -14 -20 -13 -12 -15 -11 -21 6
-7 21 -25 28 -25 10 0 -5 4 -10 9 -10 6 0 6 -12 2 -27 -4 -16 -6 -34 -4 -40 3
-7 0 -13 -5 -13 -5 0 -20 37 -34 83 -48 155 -118 393 -118 399 0 3 9 4 20 1
11 -3 20 -8 20 -12 0 -3 24 -7 53 -7 l52 -2 -75 20 c-53 14 -85 29 -110 51
-28 26 -30 27 -11 4 l25 -27 -33 6 c-26 5 -35 3 -47 -14 -8 -12 -21 -19 -29
-16 -8 4 -15 1 -15 -7 0 -7 -3 -10 -6 -6 -13 12 8 47 29 48 22 1 14 4 -51 25
-10 3 -10 9 2 31 32 60 32 60 63 33 15 -14 22 -18 16 -10 -7 8 -13 34 -13 58
0 30 -3 41 -12 36 -8 -5 -9 -2 -5 10 4 10 10 29 13 42 6 23 8 24 30 9 29 -19
40 -19 25 -1 -11 14 2 67 30 119 5 10 6 23 2 30 -4 7 1 6 11 -2 9 -8 16 -10
15 -5 -7 38 8 31 61 -26 32 -36 59 -71 60 -78z m-49 105 c-8 -8 -11 -7 -11 4
0 20 13 34 18 19 3 -7 -1 -17 -7 -23z m-1011 -47 c0 -13 -1 -13 -10 0 -5 8
-10 22 -10 30 0 13 1 13 10 0 5 -8 10 -22 10 -30z m220 3 c1 -5 13 -102 29
-218 16 -115 27 -212 25 -214 -2 -2 -58 -19 -124 -38 l-121 -34 -42 40 c-23
21 -81 71 -130 111 -50 41 -84 76 -81 82 4 6 3 8 -3 5 -12 -7 -135 92 -128
104 9 14 77 29 103 22 17 -4 23 -2 18 5 -4 7 10 16 36 23 44 12 365 108 383
114 18 6 35 5 35 -2z m-1220 -19 c0 -2 -7 -4 -15 -4 -8 0 -15 4 -15 10 0 5 7
7 15 4 8 -4 15 -8 15 -10z m960 -29 c0 -5 -5 -3 -10 5 -5 8 -10 20 -10 25 0 6
5 3 10 -5 5 -8 10 -19 10 -25z m1755 25 c3 -5 -1 -10 -9 -10 -9 0 -16 5 -16
10 0 6 4 10 9 10 6 0 13 -4 16 -10z m-2412 -36 c61 -20 117 -42 123 -50 6 -7
15 -10 20 -5 5 5 41 -3 84 -19 l74 -27 -89 -88 -90 -87 88 77 c48 43 87 75 87
73 0 -19 -24 -67 -36 -72 -8 -3 -14 -16 -14 -29 0 -38 -21 -90 -49 -122 -20
-23 -21 -26 -3 -11 27 23 27 21 2 -31 -11 -23 -35 -85 -54 -138 -19 -54 -36
-98 -38 -99 -2 -1 -46 -10 -98 -20 -52 -9 -106 -20 -120 -23 -23 -6 -24 -5
-10 13 14 19 14 19 -7 0 -12 -10 -61 -26 -108 -36 l-85 -17 188 186 c104 102
161 161 128 131 -33 -30 -67 -62 -76 -70 -179 -172 -222 -210 -230 -205 -6 4
-9 1 -8 -7 2 -7 -3 -12 -10 -10 -6 1 -11 -3 -10 -9 3 -11 -126 -47 -217 -62
l-37 -6 26 25 c14 14 29 23 34 20 6 -3 13 1 16 10 4 10 2 13 -6 8 -7 -4 -8 -3
-4 4 4 7 14 12 22 12 8 0 13 3 12 8 -2 4 77 85 174 181 98 95 175 178 171 184
-3 6 -1 7 5 3 7 -4 63 44 135 116 68 68 100 101 71 75 -47 -44 -54 -48 -75
-37 -22 10 -22 10 -6 -3 17 -14 14 -18 -39 -68 -31 -30 -57 -52 -59 -49 -1 3
-9 -1 -18 -9 -10 -7 -17 -10 -17 -5 -1 5 -7 -2 -14 -16 -8 -14 -12 -29 -8 -34
3 -5 -2 -7 -12 -3 -12 5 -15 3 -10 -6 4 -6 -2 -3 -14 7 -20 17 -20 20 -5 31
15 11 15 13 -6 20 -12 4 -25 4 -28 1 -4 -3 1 -6 11 -6 10 0 14 -5 10 -11 -3
-6 -17 -8 -29 -5 -13 3 -27 2 -30 -4 -3 -5 3 -10 14 -10 28 0 52 -11 46 -20
-3 -5 -1 -12 5 -15 8 -5 7 -11 -1 -21 -15 -18 -30 -18 -55 1 -18 14 -17 14 10
5 16 -6 31 -9 33 -6 8 8 -35 26 -59 25 -13 0 -33 2 -46 6 -33 11 -18 -21 16
-34 l27 -9 -31 -1 c-45 -1 -137 17 -149 30 -7 8 2 10 35 7 l45 -5 -37 15 c-35
14 -53 42 -26 42 6 0 9 3 5 6 -3 3 2 14 11 25 11 13 23 17 41 12 21 -5 24 -3
14 8 -18 18 -16 32 3 25 8 -3 13 -2 10 3 -5 8 246 261 259 261 3 0 56 -16 118
-36z m2373 11 c-3 -30 -11 -39 -25 -30 -7 4 -5 14 6 30 22 30 22 30 19 0z
m-2576 -25 c0 -15 -5 -12 -26 11 -19 22 -19 22 4 10 12 -6 22 -16 22 -21z
m2750 -36 c0 15 70 -56 70 -71 0 -7 5 -13 11 -13 6 0 9 -9 6 -20 -3 -13 0 -20
9 -20 8 0 12 -10 11 -27 -2 -22 -7 -28 -28 -30 -43 -3 -98 -41 -92 -63 3 -10
12 -21 21 -25 14 -5 15 -4 5 6 -17 17 -16 29 0 29 7 0 17 -10 22 -22 7 -17 17
-22 37 -20 23 2 26 -1 24 -29 0 -18 5 -34 12 -36 6 -3 12 2 12 10 0 9 10 15
25 15 14 0 25 -4 25 -9 0 -5 -7 -9 -15 -9 -8 0 -15 -4 -15 -10 0 -5 -16 -12
-35 -16 -20 -3 -42 -15 -49 -26 -13 -17 -22 -10 -144 118 -72 75 -129 141
-126 145 3 5 1 9 -4 9 -11 0 -4 39 11 57 5 7 14 10 19 7 10 -6 68 53 68 70 0
6 5 5 12 -2 17 -17 58 -15 65 4 5 14 9 13 24 -7 10 -13 19 -20 19 -15z m-145
16 c3 -5 -1 -10 -10 -10 -9 0 -13 5 -10 10 3 6 8 10 10 10 2 0 7 -4 10 -10z
m-51 -29 c-14 -13 -23 -16 -32 -8 -11 8 -11 12 0 18 7 5 22 9 32 9 19 0 19 0
0 -19z m-1950 -123 c57 -51 65 -63 51 -71 -9 -5 -18 -7 -19 -5 -27 39 -50 62
-62 64 -13 2 -13 0 0 -21 21 -31 20 -42 -2 -54 -12 -6 -23 -6 -33 1 -11 8 -11
9 4 4 33 -11 16 4 -23 20 -22 9 -40 20 -40 24 0 18 31 80 41 80 5 0 7 5 4 10
-16 26 16 5 79 -52z m2246 -103 c-7 -8 -16 -15 -21 -15 -14 0 -11 38 4 43 20
7 31 -11 17 -28z m-2174 17 c-3 -5 1 -9 9 -9 8 0 12 5 8 10 -11 18 32 -12 77
-54 25 -22 37 -36 28 -29 -9 6 -25 10 -35 8 -10 -1 -24 1 -31 6 -12 7 -12 4
-2 -14 8 -15 8 -20 1 -16 -6 4 -11 2 -11 -5 0 -9 -3 -9 -14 0 -11 10 -16 8
-24 -5 -9 -16 -10 -15 -16 4 -9 27 -23 28 -31 2 -8 -27 -21 -25 -41 5 -18 27
-37 25 -27 -3 6 -15 5 -15 -8 -2 -9 9 -21 26 -28 38 -10 20 -9 23 11 31 15 6
28 5 37 -3 12 -9 13 -8 8 8 -7 17 -4 18 28 13 20 -3 33 -2 30 3 -3 4 1 11 7
13 20 8 30 8 24 -1z m-165 -17 c1 -17 -18 -17 -25 0 -4 11 -1 15 10 13 8 -2
15 -7 15 -13z m2359 -15 c0 -5 -4 -10 -10 -10 -5 0 -10 5 -10 10 0 6 5 10 10
10 6 0 10 -4 10 -10z m-2335 -56 c25 -39 -3 -29 -38 13 -18 21 -18 21 2 16 11
-3 27 -16 36 -29z m-27 -14 c10 -16 9 -18 -2 -14 -8 3 -19 -3 -26 -15 -15 -29
-28 -26 -22 4 2 14 9 25 14 25 5 0 6 5 3 10 -4 6 -11 7 -17 4 -6 -4 -8 -2 -5
4 10 14 41 4 55 -18z m1588 3 c-11 -11 25 -35 42 -28 15 7 15 8 -3 16 -13 6
-7 7 20 3 69 -11 67 -29 -2 -27 -7 1 -13 -5 -13 -13 0 -8 -6 -11 -15 -8 -11 4
-13 2 -9 -9 3 -8 1 -18 -5 -21 -6 -4 -15 11 -21 34 -6 23 -14 48 -17 56 -4 10
0 12 11 8 9 -4 15 -9 12 -11z m974 -3 c0 -5 -4 -10 -10 -10 -5 0 -10 5 -10 10
0 6 5 10 10 10 6 0 10 -4 10 -10z m-2199 -32 c21 -17 39 -34 39 -38 0 -4 -28
-14 -62 -24 -35 -9 -163 -46 -286 -82 -123 -36 -226 -64 -228 -61 -2 2 6 27
18 55 26 58 18 54 298 137 69 20 130 38 135 40 27 9 50 2 86 -27z m-1207 10
c-3 -4 -9 -8 -15 -8 -5 0 -9 4 -9 8 0 5 7 9 15 9 8 0 12 -4 9 -9z m184 -14
c61 -23 52 -34 -15 -17 -32 8 -71 16 -88 17 -61 5 -66 6 -61 15 8 12 115 3
164 -15z m2477 -10 c18 -8 21 -12 7 -8 -12 3 -22 2 -21 -3 5 -28 -3 -34 -38
-31 -28 2 -38 8 -38 20 0 9 -4 20 -8 24 -28 29 34 28 98 -2z m611 -22 c-18
-16 -19 -16 -12 1 3 10 6 24 6 30 0 8 4 7 12 -1 10 -9 8 -16 -6 -30z m-3171
-6 l70 -34 -117 1 c-64 1 -114 5 -111 10 2 4 19 8 36 8 27 2 28 2 7 6 -36 7
-55 24 -38 34 26 17 85 7 153 -25z m60 4 l20 -9 -20 0 c-11 0 -27 4 -35 9 -13
9 -13 10 0 9 8 0 24 -4 35 -9z m3019 -32 c-3 -4 0 -9 5 -9 6 -1 16 -3 21 -4 6
-1 17 -3 25 -4 24 -2 17 -18 -11 -25 -20 -5 -33 -1 -50 15 -29 27 -30 35 -5
35 11 0 17 -4 15 -8z m-2974 -12 c0 -11 -19 -15 -25 -6 -3 5 1 10 9 10 9 0 16
-2 16 -4z m-120 -14 c-23 -4 -24 -5 -5 -13 23 -9 -99 -11 -153 -2 -63 10 -11
23 88 21 52 -1 84 -4 70 -6z m90 -16 c0 -2 -8 -10 -17 -17 -16 -13 -17 -12 -4
4 13 16 21 21 21 13z m2264 -12 c3 -8 2 -12 -4 -9 -6 3 -10 10 -10 16 0 14 7
11 14 -7z m881 -14 c13 -5 14 -9 5 -9 -8 0 -24 4 -35 9 -13 5 -14 9 -5 9 8 0
24 -4 35 -9z m-3285 -10 c10 -6 4 -8 -22 -7 -20 1 -34 5 -31 10 6 10 35 9 53
-3z m3249 -6 c62 -14 74 -20 88 -47 22 -44 106 -284 138 -400 l28 -98 -21 -15
c-16 -11 -22 -26 -22 -55 0 -24 -5 -42 -13 -45 -22 -8 -16 -32 7 -28 13 3 9
-1 -9 -10 -72 -33 -68 -35 -99 71 -40 137 -42 148 -26 138 9 -5 11 -4 6 4 -4
6 -12 9 -17 6 -5 -4 -9 -4 -9 0 0 6 -67 243 -106 375 -14 47 -28 93 -30 103
-6 21 -4 21 85 1z m353 -85 c183 -45 214 -55 200 -66 -15 -11 -15 -14 -3 -22
11 -7 12 -13 4 -23 -14 -18 -13 -50 2 -44 6 2 12 -2 12 -10 0 -16 -8 -17 -212
-44 -82 -11 -152 -16 -156 -12 -3 4 -25 63 -49 132 -23 69 -45 131 -48 139 -3
9 1 12 14 8 10 -3 116 -29 236 -58z m-1096 16 c8 -33 1 -40 -20 -20 -15 15
-16 15 -16 -2 0 -15 -2 -16 -10 -3 -15 23 -12 40 5 34 8 -4 15 -1 15 5 0 22
20 11 26 -14z m-66 -29 c0 -8 -4 -17 -8 -20 -4 -2 -8 4 -8 15 0 10 4 19 8 19
4 0 8 -6 8 -14z m50 -20 c0 -3 -4 -8 -10 -11 -5 -3 -10 -1 -10 4 0 6 5 11 10
11 6 0 10 -2 10 -4z m-21 -89 c1 -14 -5 -18 -21 -15 -18 2 -24 11 -26 37 -3
31 -2 33 12 22 10 -8 16 -9 16 -3 0 6 -5 14 -10 17 -6 4 -7 11 -3 18 7 12 31
-44 32 -76z m1388 57 c-3 -3 -12 -4 -19 -1 -8 3 -5 6 6 6 11 1 17 -2 13 -5z
m-1350 -34 c-7 -20 -14 -25 -19 -17 -14 23 -9 47 11 47 17 0 18 -3 8 -30z
m-195 -74 c6 4 9 1 7 -5 -7 -19 -24 -14 -26 6 -2 10 0 12 3 5 3 -6 10 -9 16
-6z m-37 -6 c3 -5 1 -18 -4 -27 -10 -17 -10 -17 -11 -1 0 9 -8 22 -17 27 -16
9 -16 10 4 11 12 0 25 -4 28 -10z m-68 -42 c-3 -7 -5 -2 -5 12 0 14 2 19 5 13
2 -7 2 -19 0 -25z m1633 -3 c0 -9 -11 -27 -26 -41 -19 -20 -31 -24 -52 -19
-15 4 -23 3 -19 -2 5 -4 -13 -14 -40 -20 l-48 -13 73 5 c44 2 70 0 67 -6 -4
-5 -18 -10 -33 -10 l-27 -1 26 -7 c23 -5 25 -8 13 -19 -11 -10 -14 -10 -14 0
0 10 -2 10 -8 0 -6 -9 -16 -10 -38 -2 -19 7 -44 7 -69 1 -38 -9 -39 -9 -10
-11 17 -2 44 -3 62 -4 17 0 34 -4 38 -8 4 -4 20 -4 36 -1 23 4 29 2 29 -11 0
-26 -19 -56 -35 -56 -20 0 -19 -16 1 -24 8 -3 12 -2 9 4 -3 6 1 10 9 10 31 0
25 -19 -11 -32 -51 -17 -58 -16 -58 6 0 10 -9 22 -21 26 -18 7 -20 5 -16 -21
3 -18 10 -29 21 -30 12 0 12 -2 -4 -9 -29 -12 -98 -12 -90 0 4 6 -7 9 -27 9
-23 -1 -26 -3 -10 -6 20 -4 21 -6 6 -20 -13 -13 -13 -18 -2 -25 10 -8 10 -9
-2 -6 -14 4 -53 115 -44 129 2 4 -1 9 -8 11 -7 3 -12 22 -12 43 0 21 -2 32 -4
25 -4 -11 -41 90 -42 111 0 8 83 19 215 29 163 12 165 12 165 -5z m-4313 -31
c-3 -3 -12 -4 -19 -1 -8 3 -5 6 6 6 11 1 17 -2 13 -5z m3052 -108 c-11 -12
-15 -8 -23 28 l-7 30 20 -25 c12 -14 16 -28 10 -33z m-279 25 c0 -10 -7 -21
-15 -24 -12 -5 -12 -2 -3 18 13 30 18 31 18 6z m17 -13 c-3 -8 -6 -5 -6 6 -1
11 2 17 5 13 3 -3 4 -12 1 -19z m1941 8 c-10 -7 -15 -16 -12 -19 4 -3 -4 -8
-17 -11 -13 -3 -33 -7 -44 -9 -11 -3 10 -5 46 -6 66 -1 67 -1 73 -32 3 -17 6
-37 6 -44 0 -14 -65 -39 -145 -54 -39 -7 -22 -9 79 -5 135 5 155 -3 58 -22
l-57 -11 50 -3 c28 -1 54 -2 59 -1 8 2 -1 -169 -9 -178 -4 -4 -200 38 -231 49
-26 10 -52 109 -32 122 10 6 8 8 -4 8 -10 0 -18 5 -18 10 0 6 9 10 19 10 11 0
23 5 26 10 4 6 -6 10 -23 10 -25 0 -30 5 -40 39 -16 52 -15 68 6 74 9 3 62 21
117 41 111 40 118 41 93 22z m-210 -223 c23 -81 40 -148 39 -150 -2 -1 -52 11
-112 27 -136 36 -370 90 -390 90 -40 0 -1 20 148 79 89 34 180 71 202 82 68
31 67 33 113 -128z m-1459 40 c6 -20 5 -30 -3 -30 -6 0 -12 16 -13 35 -2 39 4
38 16 -5z m340 -153 c18 -53 24 -83 17 -85 -53 -18 -128 -36 -132 -32 -3 3 8
8 25 12 36 8 49 23 30 37 -11 7 -9 9 7 5 23 -5 51 27 34 38 -6 3 -10 -1 -10
-9 0 -9 -7 -16 -15 -16 -8 0 -15 7 -15 15 0 9 -7 18 -15 21 -24 10 -17 31 11
38 27 7 49 -3 26 -11 -6 -3 -10 -9 -6 -14 10 -18 24 -9 24 16 0 14 -4 25 -9
25 -5 0 -11 14 -13 30 -8 51 12 18 41 -70z m1467 3 c2 -27 3 -54 3 -60 1 -7 9
-13 18 -13 9 0 14 -2 11 -5 -3 -3 -19 -2 -37 1 -28 6 -31 10 -27 33 2 14 7 43
11 65 8 49 17 40 21 -21z m-1617 -52 c8 -5 9 -11 3 -15 -5 -3 -15 1 -22 9 -14
16 -3 20 19 6z m-189 -43 c0 -6 -7 -5 -15 2 -8 7 -15 17 -15 22 0 6 7 5 15 -2
8 -7 15 -17 15 -22z m1887 6 c-3 -3 -12 -4 -19 -1 -8 3 -5 6 6 6 11 1 17 -2
13 -5z m-2009 -91 c13 -41 9 -54 -16 -52 -15 1 -14 2 1 6 11 3 16 10 13 20 -3
8 -6 19 -6 25 0 6 -7 8 -15 4 -15 -5 -21 14 -8 27 13 13 20 7 31 -30z m121 -4
c12 0 11 -3 -4 -9 -31 -13 -45 -12 -45 5 0 8 4 15 10 15 5 0 7 8 4 18 -2 9 1
7 7 -5 7 -13 19 -23 28 -24z m-59 -23 c0 -2 -7 -6 -15 -10 -8 -3 -15 -1 -15 4
0 6 7 10 15 10 8 0 15 -2 15 -4z m480 -139 c0 -2 -10 -12 -22 -23 l-23 -19 19
23 c18 21 26 27 26 19z m-124 -72 c-7 -26 -21 -31 -46 -15 -11 7 -9 11 13 19
15 6 27 16 27 22 0 7 3 10 6 6 4 -3 4 -18 0 -32z m359 -14 c-3 -6 5 -19 17
-31 l23 -21 -30 7 c-16 3 -34 10 -38 14 -11 10 3 40 20 40 8 0 12 -4 8 -9z
m-151 -10 c20 -8 32 -41 14 -41 -6 0 0 -9 13 -19 35 -28 20 -33 -42 -15 -53
17 -54 17 -27 28 24 10 25 13 11 22 -9 6 -13 15 -9 22 8 13 13 14 40 3z m-137
-25 c0 -8 -7 -12 -16 -11 -9 2 -20 4 -24 4 -4 1 -2 7 5 15 15 16 35 11 35 -8z
m73 -10 c0 -3 -4 -8 -10 -11 -5 -3 -10 -1 -10 4 0 6 5 11 10 11 6 0 10 -2 10
-4z m320 -11 c-7 -9 -15 -13 -19 -10 -3 3 1 10 9 15 21 14 24 12 10 -5z m-76
-10 c20 -8 36 -17 36 -18 0 -2 -12 -14 -27 -28 -15 -13 -21 -16 -14 -6 12 15
11 17 -8 17 -12 0 -31 -5 -42 -11 -22 -12 -62 -3 -53 12 4 6 10 6 19 -1 24
-20 52 5 46 43 -1 10 1 9 43 -8z m60 -86 c-8 -14 -31 -11 -31 5 0 8 8 11 19 8
10 -2 15 -8 12 -13z m-3729 2 l30 -6 -65 -46 c-103 -73 -174 -119 -177 -115
-2 2 15 42 38 90 l42 86 51 -1 c28 -1 65 -4 81 -8z m3877 -82 c91 -33 171 -59
177 -59 15 0 17 10 -39 -151 -52 -146 -73 -184 -97 -174 -8 2 -12 1 -9 -4 7
-11 -180 -181 -199 -181 -8 0 -15 -5 -15 -12 0 -14 -50 -68 -62 -68 -5 0 -6 4
-3 10 4 6 -1 7 -11 3 -11 -4 -13 -8 -6 -11 16 -5 15 -18 0 -20 -49 -4 -62 -9
-71 -29 -11 -26 -64 -44 -99 -36 -13 3 -20 2 -16 -2 4 -4 -4 -17 -18 -28 -20
-16 -30 -17 -47 -9 -38 19 -65 23 -72 12 -3 -6 -11 -8 -16 -5 -5 4 -9 -3 -9
-14 0 -11 -4 -23 -10 -26 -6 -4 -10 7 -10 26 0 18 -3 30 -6 26 -8 -8 -33 16
-27 26 3 5 -5 8 -18 7 -42 -4 -60 0 -54 10 3 6 17 7 29 4 20 -5 23 -2 22 24
-1 22 -5 28 -16 24 -13 -5 -13 -3 -1 11 8 10 11 20 8 23 -9 9 -27 -5 -27 -22
0 -8 -4 -14 -9 -14 -5 0 -8 8 -7 18 1 11 -6 17 -21 16 -13 0 -24 7 -26 18 -3
10 -1 18 4 18 5 0 9 9 9 20 0 13 -9 22 -27 26 -57 14 -57 23 -1 79 45 44 236
219 513 471 81 74 53 75 287 -7z m52 -446 c-9 -21 -32 -78 -52 -126 -20 -49
-38 -84 -40 -78 -7 21 -32 11 -32 -13 0 -28 -10 -33 -56 -28 -38 5 -41 10 -18
38 8 10 12 13 9 6 -10 -19 36 -12 51 7 6 8 20 12 31 9 16 -4 23 3 37 41 9 25
16 56 16 69 0 12 5 22 11 22 6 0 8 7 5 16 -3 8 -2 12 4 9 6 -3 10 1 10 9 0 13
29 56 37 56 2 0 -4 -17 -13 -37z m-4134 -144 c0 -9 -40 -39 -53 -39 -5 0 -3 8
4 18 12 15 12 16 -2 5 -13 -11 -41 -19 -71 -22 -5 -1 -8 -8 -8 -16 0 -14 4
-14 31 0 17 9 33 15 35 12 5 -4 -7 -13 -80 -57 l-39 -24 16 30 c9 16 24 47 33
69 9 22 29 51 43 63 25 23 25 23 2 12 -19 -10 -22 -9 -17 2 3 7 9 21 12 32 6
16 13 12 50 -29 24 -26 44 -51 44 -56z m3169 45 c-13 -14 -25 -20 -27 -14 -2
6 4 18 14 25 31 24 39 17 13 -11z m874 -42 c-3 -12 -13 -22 -22 -21 -10 0 -11
2 -3 6 6 2 12 9 12 14 0 6 -6 7 -12 4 -7 -4 -6 -1 3 7 9 7 14 20 12 28 -3 12
-2 12 6 -1 5 -8 7 -25 4 -37z m-823 -6 c0 -18 -16 -29 -30 -21 -6 4 -5 11 3
20 16 18 27 19 27 1z m-3159 -53 c17 -21 69 -78 113 -127 45 -49 80 -94 80
-102 -1 -7 5 -10 12 -7 17 6 18 -8 2 -27 -11 -12 -10 -12 3 -2 14 11 29 0 102
-80 47 -51 84 -94 82 -96 -2 -2 -23 5 -47 16 -23 10 -52 22 -63 26 -19 7 -19
8 -2 20 9 7 17 17 17 21 0 5 -9 0 -20 -10 -11 -10 -26 -15 -36 -11 -15 6 -15
9 5 30 12 13 18 27 13 30 -9 5 -38 -20 -44 -39 -2 -5 -5 -9 -8 -8 -81 25 -212
63 -233 67 -15 4 -26 10 -23 15 3 4 -5 6 -17 4 -19 -4 -233 51 -245 62 -1 1
11 31 27 67 30 68 49 86 138 132 28 15 57 34 64 42 19 23 45 16 80 -23z m3007
-30 c-2 -5 3 -23 11 -40 14 -34 9 -69 -9 -58 -5 3 -10 2 -10 -3 0 -5 20 -25
45 -45 26 -20 41 -38 35 -42 -5 -3 -10 -13 -10 -21 0 -9 5 -12 12 -8 7 4 8 3
4 -4 -4 -7 -14 -12 -22 -12 -8 0 -14 -9 -14 -19 0 -11 -2 -26 -6 -34 -3 -10 4
-16 26 -20 l31 -7 -22 -30 -23 -30 -28 32 c-15 17 -28 37 -28 44 0 6 -8 18
-17 25 -11 10 -14 10 -9 2 4 -7 2 -13 -3 -13 -20 0 -11 -32 9 -37 24 -6 25
-10 6 -29 -17 -17 -46 -19 -46 -3 0 8 -4 8 -14 0 -11 -9 -15 -7 -20 11 -8 31
4 180 17 196 6 8 6 12 -2 12 -6 0 -11 7 -11 15 0 8 6 15 14 15 8 0 18 9 21 20
3 11 13 20 21 20 9 0 13 8 10 23 -2 12 1 28 6 35 11 13 29 17 26 5z m963 -24
c-5 -13 -10 -19 -10 -12 -1 15 10 45 15 40 3 -2 0 -15 -5 -28z m-1088 -230
c-8 -7 -929 -238 -967 -242 -14 -2 -22 12 -39 66 -11 37 -17 70 -14 73 3 3 47
16 99 29 51 13 165 42 253 65 88 23 275 72 415 109 l255 67 3 -80 c2 -43 -1
-83 -5 -87z m835 158 c8 -10 6 -13 -7 -13 -11 0 -17 6 -14 13 3 7 6 13 8 13 1
0 7 -6 13 -13z m-408 -7 c0 -5 -9 -10 -20 -10 -11 0 -20 5 -20 10 0 6 9 10 20
10 11 0 20 -4 20 -10z m92 -72 c-9 -9 -12 -7 -12 12 0 19 3 21 12 12 9 -9 9
-15 0 -24z m-1580 -142 c2 -17 -2 -30 -10 -32 -7 -1 -8 0 -3 2 6 3 7 14 2 27
-5 12 -8 24 -8 27 0 15 -16 50 -24 50 -5 0 -7 10 -5 23 3 12 5 31 6 42 2 23
37 -95 42 -139z m1834 125 c-9 -10 -16 -23 -16 -29 0 -17 -17 -15 -24 3 -4 10
2 19 17 25 13 5 16 9 7 10 -13 0 -13 2 0 9 22 15 33 1 16 -18z m-348 8 c-2 -6
-8 -10 -13 -10 -5 0 -11 4 -13 10 -2 6 4 11 13 11 9 0 15 -5 13 -11z m118 -45
c29 -7 36 -51 7 -48 -7 1 -11 -2 -8 -6 3 -5 1 -11 -5 -15 -5 -3 -10 1 -10 10
0 11 -5 15 -15 11 -8 -3 -15 -1 -15 3 0 5 6 11 13 14 9 3 9 8 1 17 -7 6 -9 21
-6 33 5 18 7 19 10 5 2 -10 14 -21 28 -24z m-3166 -68 c0 -2 -8 -10 -17 -17
-16 -13 -17 -12 -4 4 13 16 21 21 21 13z m1608 -143 c11 -35 16 -63 11 -63 -5
0 -9 5 -9 11 0 5 -4 8 -9 5 -9 -6 -25 50 -26 96 -1 38 9 23 33 -49z"/>
<path d="M2891 4014 c0 -11 3 -14 6 -6 3 7 2 16 -1 19 -3 4 -6 -2 -5 -13z"/>
<path d="M2827 3818 c-21 -60 -37 -112 -34 -114 2 -2 21 45 42 106 20 61 36
113 34 115 -2 2 -21 -46 -42 -107z"/>
<path d="M2771 3659 c-6 -18 -9 -34 -7 -36 2 -2 9 10 15 28 6 18 9 34 7 36 -2
2 -9 -10 -15 -28z"/>
<path d="M2707 3483 c-32 -98 -59 -205 -53 -211 5 -4 9 10 40 134 9 33 22 80
31 104 8 24 13 45 11 47 -2 2 -15 -31 -29 -74z"/>
<path d="M2256 3405 c4 -8 11 -15 16 -15 6 0 5 6 -2 15 -7 8 -14 15 -16 15 -2
0 -1 -7 2 -15z"/>
<path d="M3393 3910 c-34 -14 -28 -30 11 -30 38 0 57 17 35 31 -17 10 -18 10
-46 -1z"/>
<path d="M3475 3890 c-3 -5 -1 -10 4 -10 6 0 11 5 11 10 0 6 -2 10 -4 10 -3 0
-8 -4 -11 -10z"/>
<path d="M3369 3846 c8 -10 9 -16 1 -21 -15 -9 -12 -35 4 -35 15 0 26 21 26
51 0 13 -7 19 -21 19 -17 0 -19 -3 -10 -14z"/>
<path d="M3172 3870 c0 -14 2 -19 5 -12 2 6 2 18 0 25 -3 6 -5 1 -5 -13z"/>
<path d="M4386 3538 c5 -7 2 -9 -7 -6 -10 4 -15 -1 -15 -12 0 -15 4 -16 19 -8
16 8 17 7 9 -9 -12 -23 -5 -43 13 -37 10 4 11 13 4 37 -6 22 -5 33 4 39 8 5 4
8 -11 8 -15 0 -21 -4 -16 -12z"/>
<path d="M4657 3003 c-22 -22 6 -80 31 -64 18 11 12 60 -7 53 -9 -3 -12 -1 -7
6 8 13 -6 17 -17 5z"/>
<path d="M4733 2936 c4 -10 7 -22 7 -27 0 -5 4 -9 9 -9 14 0 7 43 -8 48 -10 3
-12 0 -8 -12z"/>
<path d="M4465 2640 c-3 -5 -1 -10 4 -10 6 0 11 5 11 10 0 6 -2 10 -4 10 -3 0
-8 -4 -11 -10z"/>
<path d="M4631 2484 c0 -11 3 -14 6 -6 3 7 2 16 -1 19 -3 4 -6 -2 -5 -13z"/>
<path d="M4495 2460 c-3 -5 -2 -10 4 -10 5 0 13 5 16 10 3 6 2 10 -4 10 -5 0
-13 -4 -16 -10z"/>
<path d="M4566 2445 c4 -8 10 -12 15 -9 14 8 10 24 -6 24 -9 0 -12 -6 -9 -15z"/>
<path d="M4555 2319 c-11 -17 -2 -18 19 -3 17 12 17 14 4 14 -9 0 -20 -5 -23
-11z"/>
<path d="M4517 2253 c-4 -3 -7 -16 -6 -27 0 -19 1 -19 10 3 10 24 8 36 -4 24z"/>
<path d="M4049 3355 c-4 -60 -35 -119 -56 -111 -13 6 -14 4 -3 -9 10 -12 10
-19 2 -27 -8 -8 -12 -9 -12 -1 0 6 -8 14 -17 17 -13 5 -11 0 7 -21 14 -15 31
-32 39 -39 8 -6 11 -16 7 -22 -5 -8 -2 -10 8 -6 9 3 15 9 14 12 -1 4 13 36 31
71 18 34 30 65 28 67 -2 3 -19 -25 -37 -62 -21 -44 -35 -62 -40 -54 -8 13 4
51 23 77 5 7 10 24 12 39 1 14 9 30 16 35 12 7 11 11 -3 26 -10 9 -18 13 -19
8z"/>
<path d="M3891 3244 c0 -11 3 -14 6 -6 3 7 2 16 -1 19 -3 4 -6 -2 -5 -13z"/>
<path d="M4072 2961 c-10 -6 -9 -10 7 -14 14 -3 21 0 21 9 0 16 -9 18 -28 5z"/>
<path d="M4164 2939 c-4 -7 -2 -15 4 -17 7 -2 12 -10 12 -18 0 -8 5 -14 10
-14 13 0 13 3 -4 35 -10 19 -16 23 -22 14z"/>
<path d="M4185 2860 c3 -5 8 -10 11 -10 2 0 4 5 4 10 0 6 -5 10 -11 10 -5 0
-7 -4 -4 -10z"/>
<path d="M4045 2809 c4 -13 11 -28 16 -33 5 -6 9 -18 9 -27 0 -10 4 -20 9 -23
5 -3 9 6 9 20 0 14 -7 28 -14 31 -8 3 -14 13 -14 23 0 11 -5 22 -11 26 -8 4
-9 -1 -4 -17z"/>
<path d="M4140 2680 c0 -9 39 -25 45 -18 2 2 -7 8 -21 15 -13 6 -24 7 -24 3z"/>
<path d="M4135 2650 c-3 -5 1 -10 10 -10 9 0 13 5 10 10 -3 6 -8 10 -10 10 -2
0 -7 -4 -10 -10z"/>
<path d="M2239 3093 c-13 -16 -12 -17 4 -4 9 7 17 15 17 17 0 8 -8 3 -21 -13z"/>
<path d="M2000 3000 c-13 -8 -12 -10 3 -10 9 0 17 5 17 10 0 12 -1 12 -20 0z"/>
<path d="M1925 2980 c27 -12 43 -12 25 0 -8 5 -22 9 -30 9 -10 0 -8 -3 5 -9z"/>
<path d="M2299 2733 c-13 -16 -12 -17 4 -4 16 13 21 21 13 21 -2 0 -10 -8 -17
-17z"/>
<path d="M1928 2603 c7 -3 16 -2 19 1 4 3 -2 6 -13 5 -11 0 -14 -3 -6 -6z"/>
<path d="M4756 3169 c-17 -20 -17 -21 6 -14 30 10 34 13 22 25 -6 6 -16 2 -28
-11z"/>
<path d="M2680 3092 c18 -24 35 -41 37 -38 3 3 -12 22 -32 43 l-38 38 33 -43z"/>
<path d="M2770 3080 c0 -5 5 -10 11 -10 5 0 7 5 4 10 -3 6 -8 10 -11 10 -2 0
-4 -4 -4 -10z"/>
<path d="M2670 2996 c0 -2 8 -10 18 -17 15 -13 16 -12 3 4 -13 16 -21 21 -21
13z"/>
<path d="M2740 2970 c6 -11 15 -20 20 -20 14 0 1 28 -16 34 -12 4 -12 2 -4
-14z"/>
<path d="M2830 2976 c0 -2 8 -10 18 -17 15 -13 16 -12 3 4 -13 16 -21 21 -21
13z"/>
<path d="M5555 2610 c-18 -8 -18 -9 5 -9 14 0 34 4 45 9 18 8 18 9 -5 9 -14 0
-34 -4 -45 -9z"/>
<path d="M5510 2500 c-11 -7 -5 -8 20 -4 43 8 51 14 19 14 -13 0 -31 -5 -39
-10z"/>
<path d="M5586 2433 c5 -5 12 -12 16 -18 4 -6 8 -2 8 8 0 9 -7 17 -17 17 -9 0
-12 -3 -7 -7z"/>
<path d="M5373 2263 c9 -2 25 -2 35 0 9 3 1 5 -18 5 -19 0 -27 -2 -17 -5z"/>
<path d="M5468 2163 c6 -2 18 -2 25 0 6 3 1 5 -13 5 -14 0 -19 -2 -12 -5z"/>
<path d="M5958 2273 c6 -2 18 -2 25 0 6 3 1 5 -13 5 -14 0 -19 -2 -12 -5z"/>
<path d="M5742 2160 c0 -14 2 -19 5 -12 2 6 2 18 0 25 -3 6 -5 1 -5 -13z"/>
<path d="M5730 2100 c0 -11 2 -20 4 -20 2 0 6 9 9 20 3 11 1 20 -4 20 -5 0 -9
-9 -9 -20z"/>
<path d="M5128 1069 c-10 -10 -18 -23 -18 -28 0 -5 -16 -16 -36 -26 -19 -9
-38 -24 -41 -33 -4 -9 -10 -20 -15 -23 -5 -3 -6 -13 -2 -23 5 -13 13 -16 35
-11 18 4 29 2 29 -4 0 -17 43 -8 63 13 12 14 16 28 12 48 -5 20 -3 28 7 28 8
0 7 4 -5 11 -13 8 -15 14 -7 29 21 40 8 52 -22 19z"/>
<path d="M5000 900 c0 -5 4 -10 9 -10 6 0 13 5 16 10 3 6 -1 10 -9 10 -9 0
-16 -4 -16 -10z"/>
<path d="M4966 863 c-11 -11 -6 -23 9 -23 8 0 15 4 15 9 0 13 -16 22 -24 14z"/>
<path d="M4656 645 c-3 -8 -1 -15 3 -15 5 0 11 7 15 15 3 8 1 15 -3 15 -5 0
-11 -7 -15 -15z"/>
<path d="M1190 670 c-8 -5 -10 -10 -5 -10 6 0 17 5 25 10 8 5 11 10 5 10 -5 0
-17 -5 -25 -10z"/>
<path d="M1240 659 c-17 -13 -18 -17 -5 -10 33 17 51 31 40 31 -5 0 -21 -10
-35 -21z"/>
<path d="M1279 653 c-13 -16 -12 -17 4 -4 16 13 21 21 13 21 -2 0 -10 -8 -17
-17z"/>
<path d="M1290 635 c-11 -13 -10 -14 4 -9 9 3 16 10 16 15 0 13 -6 11 -20 -6z"/>
<path d="M1349 595 c-1 -3 -2 -8 -3 -12 -1 -5 -5 -14 -10 -22 -5 -8 1 -7 18 4
14 10 26 19 26 20 0 5 -30 14 -31 10z"/>
<path d="M1345 535 l-30 -25 38 21 c20 11 37 23 37 25 0 10 -17 2 -45 -21z"/>
<path d="M1380 499 l-35 -31 37 26 c45 32 57 33 32 4 l-19 -23 22 19 c21 17
23 36 5 36 -4 0 -23 -14 -42 -31z"/>
<path d="M1442 494 c2 -6 -8 -21 -22 -35 -15 -13 -19 -18 -10 -11 9 6 20 12
24 12 4 0 4 -6 0 -12 -6 -10 -4 -10 8 0 16 13 18 35 4 49 -4 4 -6 3 -4 -3z"/>
<path d="M1455 420 c-3 -5 -2 -10 4 -10 5 0 13 5 16 10 3 6 2 10 -4 10 -5 0
-13 -4 -16 -10z"/>
<path d="M1494 378 l-29 -31 38 28 c38 28 44 35 29 35 -5 0 -21 -14 -38 -32z"/>
<path d="M1519 363 c-13 -16 -12 -17 4 -4 16 13 21 21 13 21 -2 0 -10 -8 -17
-17z"/>
<path d="M3528 3497 c-4 -19 -1 -27 8 -27 15 0 16 6 5 35 -7 17 -8 17 -13 -8z"/>
<path d="M3595 3500 c-3 -5 -1 -10 4 -10 6 0 11 5 11 10 0 6 -2 10 -4 10 -3 0
-8 -4 -11 -10z"/>
<path d="M3470 3478 c0 -10 -4 -19 -10 -19 -34 -5 -142 -40 -137 -45 3 -3 47
7 98 22 50 16 86 30 78 32 -8 3 -17 10 -21 16 -5 7 -8 4 -8 -6z"/>
<path d="M3584 3385 c-3 -8 -4 -20 -2 -27 3 -7 7 -1 10 15 6 29 1 36 -8 12z"/>
<path d="M3641 3321 c-1 -16 -5 -21 -16 -18 -8 4 -17 2 -20 -3 -4 -6 -11 -10
-16 -10 -6 0 -8 4 -5 8 2 4 1 14 -5 22 -7 12 -9 10 -9 -8 0 -13 -4 -21 -8 -18
-5 3 -9 -1 -9 -9 0 -18 2 -18 65 0 29 9 52 20 52 26 0 6 -4 8 -9 4 -5 -3 -12
3 -14 12 -3 13 -5 12 -6 -6z"/>
<path d="M3516 3272 c-4 -4 -24 -12 -44 -18 -20 -7 -28 -12 -17 -12 30 -1 90
23 78 31 -5 4 -13 3 -17 -1z"/>
<path d="M3360 3238 c0 -9 -6 -19 -12 -21 -8 -3 -7 -6 4 -6 22 -1 29 11 17 29
-7 13 -9 12 -9 -2z"/>
<path d="M3720 3180 c-13 -8 -12 -10 3 -10 9 0 17 5 17 10 0 12 -1 12 -20 0z"/>
<path d="M3630 3150 c-18 -12 -2 -12 25 0 13 6 15 9 5 9 -8 0 -22 -4 -30 -9z"/>
<path d="M3555 3130 c-13 -5 -14 -9 -5 -9 8 0 24 4 35 9 13 5 14 9 5 9 -8 0
-24 -4 -35 -9z"/>
<path d="M3450 3100 c-30 -10 -46 -18 -35 -18 11 0 43 8 70 18 64 24 37 24
-35 0z"/>
<path d="M3665 3040 c-13 -5 -14 -9 -5 -9 8 0 24 4 35 9 13 5 14 9 5 9 -8 0
-24 -4 -35 -9z"/>
<path d="M3560 3009 c-35 -12 -43 -16 -20 -12 40 7 112 32 90 31 -8 0 -40 -8
-70 -19z"/>
<path d="M3977 2415 c12 -59 21 -72 19 -29 0 23 -4 40 -8 38 -3 -2 -9 2 -12 8
-3 7 -2 0 1 -17z"/>
<path d="M4001 2335 c0 -5 8 -37 19 -70 11 -33 17 -44 13 -25 -6 38 -31 111
-32 95z"/>
<path d="M1281 2284 c0 -11 3 -14 6 -6 3 7 2 16 -1 19 -3 4 -6 -2 -5 -13z"/>
<path d="M1291 2244 c0 -11 3 -14 6 -6 3 7 2 16 -1 19 -3 4 -6 -2 -5 -13z"/>
<path d="M1301 2210 c0 -8 4 -24 9 -35 5 -13 9 -14 9 -5 0 8 -4 24 -9 35 -5
13 -9 14 -9 5z"/>
<path d="M1322 2135 c0 -11 3 -29 8 -40 11 -25 11 1 0 35 -6 20 -8 21 -8 5z"/>
<path d="M1341 2054 c0 -11 3 -14 6 -6 3 7 2 16 -1 19 -3 4 -6 -2 -5 -13z"/>
<path d="M1350 2024 c0 -5 11 -49 24 -99 13 -49 26 -103 30 -119 4 -15 9 -26
12 -23 3 2 -9 58 -27 123 -29 111 -39 141 -39 118z"/>
<path d="M1421 1754 c0 -11 3 -14 6 -6 3 7 2 16 -1 19 -3 4 -6 -2 -5 -13z"/>
<path d="M1431 1714 c0 -11 3 -14 6 -6 3 7 2 16 -1 19 -3 4 -6 -2 -5 -13z"/>
<path d="M1452 1635 c0 -16 2 -22 5 -12 2 9 2 23 0 30 -3 6 -5 -1 -5 -18z"/>
<path d="M1471 1564 c0 -11 3 -14 6 -6 3 7 2 16 -1 19 -3 4 -6 -2 -5 -13z"/>
<path d="M4395 1518 l-50 -53 53 50 c28 27 52 51 52 52 0 8 -9 -1 -55 -49z"/>
<path d="M4170 1539 c0 -5 5 -7 10 -4 6 3 10 8 10 11 0 2 -4 4 -10 4 -5 0 -10
-5 -10 -11z"/>
<path d="M1481 1524 c0 -11 3 -14 6 -6 3 7 2 16 -1 19 -3 4 -6 -2 -5 -13z"/>
<path d="M1491 1490 c0 -8 4 -24 9 -35 5 -13 9 -14 9 -5 0 8 -4 24 -9 35 -5
13 -9 14 -9 5z"/>
<path d="M3348 1483 c7 -3 16 -2 19 1 4 3 -2 6 -13 5 -11 0 -14 -3 -6 -6z"/>
<path d="M3308 1473 c7 -3 16 -2 19 1 4 3 -2 6 -13 5 -11 0 -14 -3 -6 -6z"/>
<path d="M3245 1460 c-13 -5 -14 -9 -5 -9 8 0 24 4 35 9 13 5 14 9 5 9 -8 0
-24 -4 -35 -9z"/>
<path d="M3165 1270 c-13 -6 -15 -9 -5 -9 8 0 22 4 30 9 18 12 2 12 -25 0z"/>
<path d="M4181 1224 c0 -11 3 -14 6 -6 3 7 2 16 -1 19 -3 4 -6 -2 -5 -13z"/>
<path d="M4351 1180 c-30 -28 -51 -50 -45 -50 5 0 32 23 59 50 63 64 56 64
-14 0z"/>
<path d="M3048 1192 c-16 -2 -28 -8 -28 -13 0 -5 -10 -10 -22 -10 -17 -1 -19
-2 -5 -6 9 -2 17 -9 17 -14 0 -6 4 -8 9 -4 6 3 17 -10 27 -30 19 -40 45 -46
68 -14 8 12 19 18 25 14 6 -3 11 1 11 9 0 8 10 16 22 18 12 2 23 9 26 17 3 9
0 11 -7 7 -7 -4 -18 -2 -26 4 -8 6 -19 9 -25 5 -6 -3 -23 0 -38 7 -15 7 -39
12 -54 10z"/>
<path d="M2931 1171 c-8 -5 -9 -11 -3 -15 5 -3 15 1 22 9 14 16 3 20 -19 6z"/>
<path d="M4396 1162 c-2 -4 4 -8 14 -8 10 0 16 4 14 8 -3 4 -9 8 -14 8 -5 0
-11 -4 -14 -8z"/>
<path d="M4181 1056 c0 -33 0 -57 2 -55 1 2 22 26 47 53 l45 49 -40 -32 -40
-32 -6 38 c-5 33 -6 30 -8 -21z"/>
<path d="M4393 1063 c7 -31 -14 -46 -46 -34 -17 7 -28 7 -32 1 -4 -6 1 -10 9
-10 10 0 13 -6 9 -16 -5 -13 -7 -13 -14 -2 -7 10 -9 8 -10 -7 0 -11 -3 -14 -6
-7 -2 6 -9 12 -15 12 -6 0 -8 -6 -5 -14 3 -8 1 -17 -6 -20 -7 -2 -2 -5 11 -5
15 -1 21 -5 16 -13 -5 -8 -2 -9 10 -5 10 4 20 7 22 7 3 0 2 5 -1 10 -3 6 -1
10 6 10 7 0 9 3 6 7 -10 10 13 33 33 33 22 0 36 48 19 64 -9 8 -10 6 -6 -11z"/>
<path d="M3228 1063 c7 -3 16 -2 19 1 4 3 -2 6 -13 5 -11 0 -14 -3 -6 -6z"/>
<path d="M4248 1023 c-21 -5 -23 -14 -6 -31 18 -18 25 -15 30 13 3 14 2 24 -1
24 -3 -1 -14 -3 -23 -6z"/>
<path d="M2911 984 c0 -11 3 -14 6 -6 3 7 2 16 -1 19 -3 4 -6 -2 -5 -13z"/>
<path d="M2950 990 c-8 -5 -10 -10 -5 -10 6 0 17 5 25 10 8 5 11 10 5 10 -5 0
-17 -5 -25 -10z"/>
<path d="M2922 920 c0 -14 2 -19 5 -12 2 6 2 18 0 25 -3 6 -5 1 -5 -13z"/>
<path d="M4426 919 c7 -13 44 -17 44 -6 0 7 -11 12 -24 12 -13 0 -22 -3 -20
-6z"/>
<path d="M4193 885 c0 -22 2 -30 4 -17 2 12 2 30 0 40 -3 9 -5 -1 -4 -23z"/>
<path d="M1429 843 c-13 -16 -12 -17 4 -4 16 13 21 21 13 21 -2 0 -10 -8 -17
-17z"/>
<path d="M3498 833 c7 -3 16 -2 19 1 4 3 -2 6 -13 5 -11 0 -14 -3 -6 -6z"/>
<path d="M3458 823 c7 -3 16 -2 19 1 4 3 -2 6 -13 5 -11 0 -14 -3 -6 -6z"/>
<path d="M3418 813 c7 -3 16 -2 19 1 4 3 -2 6 -13 5 -11 0 -14 -3 -6 -6z"/>
<path d="M3268 773 c7 -3 16 -2 19 1 4 3 -2 6 -13 5 -11 0 -14 -3 -6 -6z"/>
<path d="M2261 605 c19 -22 77 -85 127 -141 l91 -100 -19 -65 c-11 -35 -17
-71 -15 -80 3 -9 -1 -19 -8 -22 -8 -3 -17 -16 -19 -29 -3 -13 -9 -32 -13 -42
-6 -13 -5 -17 2 -13 8 5 8 -5 0 -30 -9 -27 -13 -32 -15 -18 -3 15 -7 12 -18
-14 -20 -48 -18 -51 26 -51 30 0 40 4 40 16 0 11 -5 14 -16 10 -13 -5 -14 -3
-6 6 35 43 80 159 50 130 -7 -7 -13 -20 -13 -29 0 -9 -5 -18 -11 -20 -22 -7
-11 52 16 92 15 22 33 57 39 78 7 20 14 37 16 37 3 0 50 -52 196 -217 16 -18
29 -40 29 -50 1 -17 1 -17 11 0 11 18 22 4 -305 362 -104 113 -249 262 -185
190z m220 -329 c-14 -31 -27 -53 -29 -51 -7 7 40 115 48 110 4 -2 -5 -29 -19
-59z m-87 -244 c3 -5 -1 -9 -9 -9 -8 0 -12 4 -9 9 7 10 11 10 18 0z"/>
<path d="M2971 69 c-11 -34 -19 -65 -16 -67 8 -8 10 -2 28 62 22 80 14 83 -12
5z"/>
<path d="M2460 81 c0 -6 4 -13 10 -16 6 -3 7 1 4 9 -7 18 -14 21 -14 7z"/>
<path d="M2760 54 c0 -13 48 -59 55 -52 3 2 -9 17 -25 33 -17 16 -30 24 -30
19z"/>
<path d="M2447 20 c7 -25 9 -25 16 0 3 12 0 20 -8 20 -8 0 -11 -8 -8 -20z"/>
<path d="M2908 3 c7 -3 16 -2 19 1 4 3 -2 6 -13 5 -11 0 -14 -3 -6 -6z"/>
</g>
</svg>
